<svg width="18" height="20" viewBox="0 0 18 20" fill="none" xmlns="http://www.w3.org/2000/svg">
<path id="remove" d="M17.6786 2.5C17.8929 2.5 18 2.60417 18 2.8125V3.4375C18 3.64583 17.8929 3.75 17.6786 3.75H16.9152L15.5893 18.2812C15.5357 18.75 15.3214 19.1536 14.9464 19.4922C14.5714 19.8307 14.1429 20 13.6607 20H4.33929C3.85714 20 3.42857 19.8307 3.05357 19.4922C2.67857 19.1536 2.46429 18.75 2.41071 18.2812L1.08482 3.75H0.321429C0.107143 3.75 0 3.64583 0 3.4375V2.8125C0 2.60417 0.107143 2.5 0.321429 2.5H4.5L5.86607 0.742188C6.02679 0.533854 6.25446 0.364583 6.54911 0.234375C6.84375 0.078125 7.125 0 7.39286 0H10.6071C10.875 0 11.1562 0.078125 11.4509 0.234375C11.7455 0.364583 11.9732 0.533854 12.1339 0.742188L13.5 2.5H17.6786ZM6.87054 1.48438L6.10714 2.5H11.8929L11.1295 1.48438C10.9955 1.32812 10.8214 1.25 10.6071 1.25H7.39286C7.17857 1.25 7.00446 1.32812 6.87054 1.48438ZM14.3036 18.1641L15.6295 3.75H2.37054L3.69643 18.1641C3.69643 18.3203 3.76339 18.4505 3.89732 18.5547C4.03125 18.6849 4.17857 18.75 4.33929 18.75H13.6607C13.7679 18.75 13.8616 18.724 13.942 18.6719C14.0491 18.6198 14.1295 18.5417 14.183 18.4375C14.2634 18.3594 14.3036 18.2682 14.3036 18.1641Z" fill="#AD8775"/>
</svg>
