<svg width="48" height="47" viewBox="0 0 48 47" fill="none" xmlns="http://www.w3.org/2000/svg">
<g id="Icon">
<path id="Shape" fill-rule="evenodd" clip-rule="evenodd" d="M43.9626 18.1554C43.9766 18.1993 43.9858 18.2447 43.9899 18.2907C43.9903 18.2974 43.9921 18.3036 43.9939 18.3098L43.9939 18.3099C43.9959 18.3166 43.9979 18.3234 43.998 18.3307V40.9974C43.997 41.4214 43.8598 41.8339 43.6066 42.174C43.6056 42.1755 43.6048 42.177 43.6041 42.1785C43.6035 42.1799 43.6029 42.1813 43.6024 42.1827C43.6011 42.1859 43.5997 42.1892 43.5973 42.1927C43.5949 42.1961 43.5916 42.1983 43.5882 42.2006C43.5871 42.2013 43.586 42.202 43.5849 42.2028C43.5829 42.2043 43.581 42.2059 43.5793 42.208C43.2043 42.7035 42.6194 42.9954 41.998 42.9973H5.99797C5.37898 42.9946 4.79648 42.7041 4.42195 42.2113C4.41841 42.2074 4.41392 42.2038 4.40978 42.2006C4.40616 42.1977 4.40281 42.1951 4.40062 42.1926C4.39808 42.1897 4.39672 42.1861 4.39535 42.1825C4.39424 42.1796 4.39311 42.1766 4.39133 42.1739C4.13813 41.8339 4.00094 41.4214 4 40.9973V18.3288C4 18.3218 4.00199 18.3153 4.00398 18.3088L4.00399 18.3088C4.00598 18.3023 4.00797 18.2958 4.00797 18.2888C4.01227 18.2435 4.02141 18.1988 4.03531 18.1554C4.04445 18.1161 4.05711 18.0777 4.07328 18.0407C4.09195 18.0045 4.1143 17.9704 4.13992 17.9387C4.16563 17.9011 4.19539 17.8664 4.22859 17.8354C4.23371 17.8309 4.23745 17.8256 4.24121 17.8203C4.24527 17.8146 4.24936 17.8089 4.25523 17.804L10.6645 12.8247V7.66402C10.6645 6.55941 11.56 5.66402 12.6645 5.66402H19.8892L22.7826 3.41801C23.4972 2.86066 24.4993 2.86066 25.2139 3.41801L28.1066 5.66402H35.3313C36.4359 5.66402 37.3313 6.55949 37.3313 7.66402V12.8246L43.7427 17.8039C43.7447 17.8056 43.7466 17.8074 43.7482 17.8093C43.7514 17.8128 43.754 17.8165 43.7566 17.8202C43.7604 17.8255 43.7641 17.8308 43.7693 17.8353C43.8025 17.8664 43.8323 17.9011 43.858 17.9386C43.8836 17.9703 43.9059 18.0045 43.9246 18.0407C43.9407 18.0777 43.9534 18.1161 43.9626 18.1554ZM24.3932 4.46996C24.1604 4.28496 23.8307 4.28496 23.5979 4.46996L22.0645 5.66395H25.9312L24.3932 4.46996ZM6.16594 41.664L23.598 28.1233C23.8309 27.9386 24.1604 27.9386 24.3933 28.1233L41.8299 41.664H6.16594ZM42.6643 40.6245L42.6644 40.6247H42.6643V40.6245ZM25.2137 27.0713L42.6643 40.6245V19.346L31.7203 27.844C31.5324 27.9933 31.2787 28.03 31.0561 27.9402C30.8336 27.8504 30.6764 27.6479 30.6447 27.41C30.613 27.1722 30.7117 26.9356 30.9029 26.7907L42.0209 18.1573L37.3309 14.5126V19.664C37.3309 20.0321 37.0325 20.3306 36.6643 20.3306C36.2961 20.3306 35.9976 20.0322 35.9976 19.664V7.66396C35.9976 7.29575 35.6992 6.99731 35.331 6.99731H12.6643C12.2961 6.99731 11.9977 7.29575 11.9977 7.66396V19.664C11.9977 20.0321 11.6993 20.3306 11.3311 20.3306C10.9629 20.3306 10.6644 20.0322 10.6644 19.664V14.5126L5.97441 18.1573L17.0731 26.7753C17.3642 27.001 17.4171 27.4199 17.1914 27.711C16.9657 28.0021 16.5468 28.055 16.2557 27.8293L5.33105 19.346V40.6247L22.7824 27.0713C23.4971 26.5144 24.4989 26.5144 25.2137 27.0713Z" fill="#DBA514"/>
<path id="Path" d="M31.998 18.9967V16.3301C31.998 11.9118 28.4163 8.33008 23.998 8.33008C19.5798 8.33008 15.998 11.9118 15.998 16.3301C15.998 20.7484 19.5798 24.3301 23.998 24.3301C24.3663 24.3301 24.6647 24.0316 24.6647 23.6634C24.6647 23.2952 24.3663 22.9968 23.998 22.9968C20.3162 22.9968 17.3314 20.012 17.3314 16.3302C17.3314 12.6483 20.3162 9.66352 23.998 9.66352C27.6799 9.66352 30.6647 12.6483 30.6647 16.3302V18.9968C30.6647 19.7332 30.0677 20.3302 29.3313 20.3302C28.5949 20.3302 27.998 19.7332 27.998 18.9968V16.3302C27.998 15.962 27.6995 15.6635 27.3313 15.6635C26.9631 15.6635 26.6647 15.962 26.6647 16.3302C26.6647 17.8029 25.4708 18.9968 23.998 18.9968C22.5253 18.9968 21.3314 17.8029 21.3314 16.3302C21.3314 14.8574 22.5253 13.6635 23.998 13.6635C24.3663 13.6635 24.6647 13.3651 24.6647 12.9969C24.6647 12.6287 24.3663 12.3302 23.998 12.3302C22.2078 12.3263 20.6329 13.5123 20.1423 15.234C19.6516 16.9557 20.3647 18.7937 21.8881 19.7341C23.4116 20.6744 25.3742 20.488 26.6934 19.2776C26.8385 20.6874 28.0639 21.7357 29.4792 21.6608C30.8946 21.5858 32.0025 20.4141 31.998 18.9967Z" fill="#DBA514"/>
</g>
</svg>
