<svg width="14" height="14" viewBox="0 0 14 14" fill="none" xmlns="http://www.w3.org/2000/svg">
<path id="increase" d="M13.7083 6.125C13.9028 6.125 14 6.22222 14 6.41667V7.58333C14 7.77778 13.9028 7.875 13.7083 7.875H7.875V13.7083C7.875 13.9028 7.77778 14 7.58333 14H6.41667C6.22222 14 6.125 13.9028 6.125 13.7083V7.875H0.291667C0.0972222 7.875 0 7.77778 0 7.58333V6.41667C0 6.22222 0.0972222 6.125 0.291667 6.125H6.125V0.291667C6.125 0.0972222 6.22222 0 6.41667 0H7.58333C7.77778 0 7.875 0.0972222 7.875 0.291667V6.125H13.7083Z" fill="#AD8775"/>
</svg>
