<svg width="43" height="43" viewBox="0 0 43 43" fill="none" xmlns="http://www.w3.org/2000/svg">
<g id="next">
<g id="Shape" filter="url(#filter0_d_2821_7798)">
<path fill-rule="evenodd" clip-rule="evenodd" d="M21.5 6.5C13.2157 6.5 6.5 13.2157 6.5 21.5C6.5 29.7841 13.2157 36.5 21.5 36.5C29.7843 36.5 36.5 29.7841 36.5 21.5C36.5 13.2157 29.7843 6.5 21.5 6.5ZM26.0709 22.516C25.9978 22.5891 25.9176 22.6509 25.8341 22.7046L20.2046 28.3341C19.9312 28.6077 19.5728 28.7444 19.2144 28.7444C18.856 28.7444 18.4978 28.6077 18.2242 28.3341C17.6772 27.7871 17.6772 26.9001 18.2242 26.3533L23.0751 21.5017L18.2486 16.6752C17.7016 16.1279 17.7016 15.2412 18.2486 14.6944C18.7956 14.1474 19.6824 14.1477 20.2294 14.6941L25.834 20.2984C25.9175 20.3521 25.9977 20.4138 26.0705 20.487C26.3501 20.7666 26.485 21.1349 26.4787 21.5016C26.4853 21.8681 26.3507 22.2362 26.0709 22.516Z" fill="white"/>
</g>
</g>
<defs>
<filter id="filter0_d_2821_7798" x="0.5" y="0.5" width="42" height="42" filterUnits="userSpaceOnUse" color-interpolation-filters="sRGB">
<feFlood flood-opacity="0" result="BackgroundImageFix"/>
<feColorMatrix in="SourceAlpha" type="matrix" values="0 0 0 0 0 0 0 0 0 0 0 0 0 0 0 0 0 0 127 0" result="hardAlpha"/>
<feOffset/>
<feGaussianBlur stdDeviation="3"/>
<feColorMatrix type="matrix" values="0 0 0 0 0.819608 0 0 0 0 0.737255 0 0 0 0 0.698039 0 0 0 0.9 0"/>
<feBlend mode="normal" in2="BackgroundImageFix" result="effect1_dropShadow_2821_7798"/>
<feBlend mode="normal" in="SourceGraphic" in2="effect1_dropShadow_2821_7798" result="shape"/>
</filter>
</defs>
</svg>
