<svg width="43" height="43" viewBox="0 0 43 43" fill="none" xmlns="http://www.w3.org/2000/svg">
<g id="prev" opacity="0.8">
<g id="Shape" filter="url(#filter0_d_2821_7794)">
<path fill-rule="evenodd" clip-rule="evenodd" d="M21.5 6.5C29.7843 6.5 36.5 13.2157 36.5 21.5C36.5 29.7841 29.7843 36.5 21.5 36.5C13.2157 36.5 6.5 29.7841 6.5 21.5C6.5 13.2157 13.2157 6.5 21.5 6.5ZM16.9291 22.516C17.0022 22.5891 17.0824 22.6509 17.1659 22.7046L22.7954 28.3341C23.0688 28.6077 23.4272 28.7444 23.7856 28.7444C24.144 28.7444 24.5022 28.6077 24.7758 28.3341C25.3228 27.7871 25.3228 26.9001 24.7758 26.3533L19.9249 21.5017L24.7514 16.6752C25.2984 16.1279 25.2984 15.2412 24.7514 14.6944C24.2044 14.1474 23.3176 14.1477 22.7706 14.6941L17.166 20.2984C17.0825 20.3521 17.0023 20.4138 16.9295 20.487C16.6499 20.7666 16.515 21.1349 16.5213 21.5016C16.5147 21.8681 16.6493 22.2362 16.9291 22.516Z" fill="white"/>
</g>
</g>
<defs>
<filter id="filter0_d_2821_7794" x="0.5" y="0.5" width="42" height="42" filterUnits="userSpaceOnUse" color-interpolation-filters="sRGB">
<feFlood flood-opacity="0" result="BackgroundImageFix"/>
<feColorMatrix in="SourceAlpha" type="matrix" values="0 0 0 0 0 0 0 0 0 0 0 0 0 0 0 0 0 0 127 0" result="hardAlpha"/>
<feOffset/>
<feGaussianBlur stdDeviation="3"/>
<feColorMatrix type="matrix" values="0 0 0 0 0.819608 0 0 0 0 0.737255 0 0 0 0 0.698039 0 0 0 0.9 0"/>
<feBlend mode="normal" in2="BackgroundImageFix" result="effect1_dropShadow_2821_7794"/>
<feBlend mode="normal" in="SourceGraphic" in2="effect1_dropShadow_2821_7794" result="shape"/>
</filter>
</defs>
</svg>
