<svg width="20" height="18" viewBox="0 0 20 18" fill="none" xmlns="http://www.w3.org/2000/svg">
<path id="Shape (Stroke)" fill-rule="evenodd" clip-rule="evenodd" d="M10.5086 1.66551C11.5511 0.599128 12.9653 0 14.4399 0C15.9145 0 17.3288 0.599168 18.3712 1.66562C19.4141 2.73155 20 4.1775 20 5.68523C20 7.19301 19.4141 8.63901 18.3711 9.70495L10.4417 17.8128C10.1976 18.0624 9.8019 18.0624 9.55782 17.8128L1.62838 9.70495C-0.542793 7.48492 -0.542793 3.88554 1.62838 1.66551C3.79955 -0.554517 7.31972 -0.554517 9.49089 1.66551L9.99976 2.18584L10.5086 1.66551ZM14.4399 1.27813C13.2969 1.27813 12.2007 1.74255 11.3926 2.56918L10.4417 3.5415C10.3245 3.66134 10.1655 3.72867 9.99976 3.72867C9.834 3.72867 9.67503 3.66134 9.55782 3.5415L8.607 2.56929C6.92399 0.848397 4.19528 0.848397 2.51226 2.56929C0.829246 4.29017 0.829246 7.08029 2.51226 8.80118L9.99976 16.4572L17.4873 8.80118C18.2957 7.97494 18.75 6.85398 18.75 5.68523C18.75 4.51648 18.2958 3.39563 17.4874 2.56939C16.6793 1.74277 15.5829 1.27813 14.4399 1.27813Z" fill="#AD8775"/>
</svg>
