<svg width="20" height="21" viewBox="0 0 20 21" fill="none" xmlns="http://www.w3.org/2000/svg">
<g id="Icon">
<path id="truck" d="M19.5039 13.5625C19.6497 13.5625 19.7643 13.6081 19.8477 13.6992C19.9518 13.7721 20.0039 13.8724 20.0039 14V14.4375C20.0039 14.5651 19.9518 14.6745 19.8477 14.7656C19.7643 14.8385 19.6497 14.875 19.5039 14.875H18.0039C18.0039 15.6042 17.7122 16.224 17.1289 16.7344C16.5456 17.2448 15.8372 17.5 15.0039 17.5C14.1706 17.5 13.4622 17.2448 12.8789 16.7344C12.2956 16.224 12.0039 15.6042 12.0039 14.875H8.00391C8.00391 15.6042 7.71224 16.224 7.12891 16.7344C6.54557 17.2448 5.83724 17.5 5.00391 17.5C4.17057 17.5 3.46224 17.2448 2.87891 16.7344C2.29557 16.224 2.00391 15.6042 2.00391 14.875H1.75391C1.27474 14.875 0.858073 14.7292 0.503906 14.4375C0.170573 14.1276 0.00390625 13.763 0.00390625 13.3438V5.03125C0.00390625 4.61198 0.170573 4.25651 0.503906 3.96484C0.858073 3.65495 1.27474 3.5 1.75391 3.5H11.2539C11.7331 3.5 12.1393 3.65495 12.4727 3.96484C12.8268 4.25651 13.0039 4.61198 13.0039 5.03125V6.125H14.1289C14.7539 6.125 15.2852 6.31641 15.7227 6.69922L18.3477 8.99609C18.7852 9.37891 19.0039 9.84375 19.0039 10.3906V13.5625H19.5039ZM3.94141 15.8047C4.23307 16.0599 4.58724 16.1875 5.00391 16.1875C5.42057 16.1875 5.77474 16.0599 6.06641 15.8047C6.35807 15.5495 6.50391 15.2396 6.50391 14.875C6.50391 14.5104 6.35807 14.2005 6.06641 13.9453C5.77474 13.6901 5.42057 13.5625 5.00391 13.5625C4.58724 13.5625 4.23307 13.6901 3.94141 13.9453C3.64974 14.2005 3.50391 14.5104 3.50391 14.875C3.50391 15.2396 3.64974 15.5495 3.94141 15.8047ZM11.5039 13.5625V5.03125C11.5039 4.88542 11.4206 4.8125 11.2539 4.8125H1.75391C1.58724 4.8125 1.50391 4.88542 1.50391 5.03125V13.3438C1.50391 13.4896 1.58724 13.5625 1.75391 13.5625H2.41016C2.68099 13.1615 3.04557 12.8424 3.50391 12.6055C3.96224 12.3685 4.46224 12.25 5.00391 12.25C5.54557 12.25 6.04557 12.3685 6.50391 12.6055C6.96224 12.8424 7.32682 13.1615 7.59766 13.5625H11.5039ZM13.0039 7.4375V9.625H16.9414L14.6602 7.62891C14.5143 7.5013 14.3372 7.4375 14.1289 7.4375H13.0039ZM13.9414 15.8047C14.2331 16.0599 14.5872 16.1875 15.0039 16.1875C15.4206 16.1875 15.7747 16.0599 16.0664 15.8047C16.3581 15.5495 16.5039 15.2396 16.5039 14.875C16.5039 14.5104 16.3581 14.2005 16.0664 13.9453C15.7747 13.6901 15.4206 13.5625 15.0039 13.5625C14.5872 13.5625 14.2331 13.6901 13.9414 13.9453C13.6497 14.2005 13.5039 14.5104 13.5039 14.875C13.5039 15.2396 13.6497 15.5495 13.9414 15.8047ZM17.5039 13.4258V10.9375H13.0039V12.9336C13.5872 12.4779 14.2539 12.25 15.0039 12.25C16.0664 12.25 16.8997 12.6419 17.5039 13.4258Z" fill="#DBA514"/>
</g>
</svg>
