<svg width="141" height="120" viewBox="0 0 141 120" fill="none" xmlns="http://www.w3.org/2000/svg">
<g id="icon">
<path id="Vector" d="M70.4997 20.0005L65.2964 23.5473L59.1049 22.2684L55.6457 27.5594L49.4542 28.7222L48.2914 34.9138L43.0004 38.3729L44.2793 44.5645L40.7324 49.7678L44.2793 54.9711L43.0004 61.1627L48.2914 64.6218L49.4542 70.8133L55.6457 71.9761L59.1049 77.2672L65.2964 75.9882L70.4997 79.5351L75.7031 75.9882L81.8946 77.2672L85.3537 71.9761L91.5453 70.8133L92.7081 64.6218L97.9991 61.1627L96.7202 54.9711L100.267 49.7678L96.7202 44.5645L97.9991 38.3729L92.7081 34.9138L91.5453 28.7222L85.3537 27.5594L81.8946 22.2684L75.7031 23.5473L70.4997 20V20.0005ZM70.4997 29.3028C81.7805 29.3028 90.9649 38.4877 90.9649 49.768C90.9649 61.0487 81.78 70.2331 70.4997 70.2331C59.219 70.2331 50.0346 61.0482 50.0346 49.768C50.0346 38.4872 59.2195 29.3028 70.4997 29.3028ZM70.4997 33.0234C61.2298 33.0234 53.7555 40.4979 53.7555 49.7677C53.7555 59.0376 61.23 66.5119 70.4997 66.5119C79.7695 66.5119 87.2439 59.0374 87.2439 49.7677C87.2439 40.4977 79.7695 33.0234 70.4997 33.0234ZM46.1392 65.4355L30.5 89.7677L44.4535 86.9769L48.1741 99.9998L60.9064 78.7788L59.4821 79.0695C58.756 79.2292 57.9468 78.9028 57.5341 78.2844L54.511 73.6624L49.1038 72.6158C48.3745 72.4776 47.7593 71.8624 47.6211 71.1331L46.5745 65.726L46.1384 65.4353L46.1392 65.4355ZM94.8602 65.4355L94.4242 65.7262L93.3776 71.1333C93.2393 71.8626 92.6242 72.4778 91.8949 72.616L86.4877 73.6626L83.4646 78.2846C83.0519 78.903 82.2428 79.2287 81.5166 79.0697L80.0923 78.779L92.8246 100L96.5452 86.9771L110.499 89.7679L94.8594 65.4357L94.8602 65.4355Z" fill="#DBA514"/>
</g>
</svg>
