<svg width="140" height="120" viewBox="0 0 140 120" fill="none" xmlns="http://www.w3.org/2000/svg">
<g id="icon">
<path id="Union" fill-rule="evenodd" clip-rule="evenodd" d="M55.2497 27.7498H51.2499V21.2499C51.2499 20.5001 50.6249 20 49.9999 20C49.2501 20 48.75 20.5001 48.75 21.2499V27.7498H44.8747C42.7495 27.7498 41.125 29.4999 41.125 31.4996V41.4996C41.125 41.8748 41.3748 42.2494 41.6251 42.4997L49.3749 47.7498C49.6246 47.8747 49.8749 47.9995 50.1247 47.9995C50.3745 47.9995 50.6248 47.8747 50.8745 47.7498L58.6243 42.4997C58.9995 42.25 59.1244 41.8748 59.1244 41.4996V31.4996C58.9995 29.4999 57.2495 27.7498 55.2497 27.7498ZM51.2499 35.9998C51.2499 36.6248 50.6249 37.2497 49.9999 37.2497C49.2501 37.2497 48.75 36.6248 48.75 35.9998V34.7499C48.75 34 49.2501 33.4999 49.9999 33.4999C50.6249 33.4999 51.2499 34 51.2499 34.7499V35.9998ZM74.999 30C74.374 30 73.749 30.625 73.749 31.2499V41.8748H77.6243C78.3741 41.8748 78.8742 42.3749 78.8742 43.1247C78.8742 43.8746 78.3741 44.3747 77.6243 44.3747H73.749V49.1246H77.6243C78.3741 49.1246 78.8742 49.6247 78.8742 50.3745C78.8742 51.1243 78.3741 51.6244 77.6243 51.6244L73.749 51.625V56.3749H77.6243C78.3741 56.3749 78.8742 56.875 78.8742 57.6248C78.8742 58.3747 78.3741 58.8748 77.6243 58.8748H73.749V63.7496H77.6243C78.3741 63.7496 78.8742 64.2497 78.8742 64.9995C78.8742 65.7494 78.3741 66.2494 77.6243 66.2494L73.749 66.25V70.9999H77.6243C78.3741 70.9999 78.8742 71.5 78.8742 72.2498C78.8742 72.9997 78.3741 73.4998 77.6243 73.4998H73.749V78.2497H77.6243C78.3741 78.2497 78.8742 78.7498 78.8742 79.4996C78.8742 80.2494 78.3741 80.7495 77.6243 80.7495H73.749V85.4994H77.6243C78.3741 85.4994 78.8742 85.9995 78.8742 86.7494C78.8742 87.4992 78.3741 87.9993 77.6243 87.9993L73.749 87.9999V98.7497C73.749 99.4995 74.374 99.9996 74.999 99.9996C94.2493 99.9996 109.998 84.2496 109.998 65.0007C109.998 45.7503 94.2478 30.0003 74.999 30.0003V30ZM85.2492 84.8739V45.1239C93.2489 48.4984 98.4989 56.249 98.4989 64.9989C98.4989 73.749 93.2489 81.4988 85.2492 84.8739ZM65.2493 93.7495L69.8744 87.6248L69.8743 87.6245C69.9992 87.3742 70.1241 86.9996 69.9992 86.6244L59.7489 44.75L52.1239 49.8751C52.1239 50 51.999 50 51.999 50L62.7494 93.6245V98.7497C62.7494 99.4995 63.3744 99.9996 63.9994 99.9996C64.7492 99.9996 65.2493 99.4995 65.2493 98.7497V93.7495ZM58.75 98.7499C58.75 99.4998 58.1251 99.9999 57.5001 99.9999H42.4999C41.7501 99.9999 41.25 99.4998 41.25 98.7499C41.25 98.0001 41.7501 97.5 42.4999 97.5H57.5001C58.2505 97.5 58.7506 98.125 58.7506 98.7499H58.75ZM37.3753 93.4995L48.1251 50.0002L48.125 50.0001L40.2497 44.75L30 86.6244C30 86.9996 30 87.3742 30.2503 87.6245L34.8755 93.8747V98.7496C34.8755 99.4994 35.3755 99.9995 36.1254 99.9995C36.7503 99.9995 37.3753 99.4994 37.3753 98.7496V93.4995Z" fill="#D1BCB2"/>
</g>
</svg>
