<svg width="141" height="120" viewBox="0 0 141 120" fill="none" xmlns="http://www.w3.org/2000/svg">
<g id="icon">
<path id="Union" fill-rule="evenodd" clip-rule="evenodd" d="M88.1115 71.2696V20H111.5V96.3882H109.265V100.001H102.729V96.3882H88.1115V82.2805C89.1433 80.7321 89.8312 78.8396 89.8312 76.775C89.8312 74.7105 89.1433 72.818 88.1115 71.2696ZM94.1306 57.85C95.1624 57.85 95.8503 56.9898 95.8503 56.1296V46.1509C95.8503 45.2907 95.1624 44.4305 94.1306 44.4305C93.2707 44.4305 92.4108 45.2907 92.4108 46.1509V56.1296C92.4108 56.9898 93.2707 57.85 94.1306 57.85ZM80.2006 70.7534C81.9204 70.7534 83.4682 71.4416 84.5 72.4739H84.501C85.7048 73.5061 86.3927 75.0546 86.2207 76.775C86.2207 80.0439 83.6411 82.7966 80.2016 82.7966H80.0296H79.6857C79.5997 82.7966 79.5567 82.8396 79.5137 82.8826C79.4707 82.9256 79.4277 82.9686 79.3417 82.9686L79.1698 83.1407C79.1698 83.2267 79.1268 83.2697 79.0838 83.3127C79.0408 83.3558 78.9978 83.3988 78.9978 83.4848L78.8258 83.6568C78.7269 83.7558 78.6849 83.7978 78.667 83.8484C78.6539 83.8858 78.6539 83.9278 78.6539 84.0009V84.173L77.1061 93.4634C76.9341 94.8398 75.5583 96.0441 74.0105 96.0441H71.1263L72.8073 100.001H66.2722L63.6024 96.0441H51.571L48.9012 100.001H42.3662L44.0472 96.0441H42.8822C41.3344 96.0441 39.9586 95.0118 39.7866 93.4634L38.2389 84.173V84.0009C38.2389 84.0009 38.0669 83.8289 38.0669 83.6568L37.551 83.1407C37.551 82.9686 37.379 82.9686 37.379 82.9686C37.379 82.9686 37.207 82.7966 37.035 82.7966H36.8631H36.5191C33.2516 82.7966 30.5 80.2159 30.5 76.775C30.5 73.5061 33.0796 70.7534 36.5191 70.7534C38.2389 70.7534 39.7866 71.4416 40.8185 72.4739C41.8503 73.5061 42.5382 75.0546 42.5382 76.775V76.9471V77.1191L44.6019 91.3989C44.7739 92.0871 45.4618 92.7752 46.3217 92.7752H70.3981C71.258 92.7752 71.9459 92.2591 72.1178 91.3989L74.1815 77.1191V76.9471V76.775C74.1815 73.5061 76.7611 70.7534 80.2006 70.7534ZM47.8704 89.3343L46.8386 82.2805H69.8831L68.8513 89.3343H47.8704ZM50.45 52.1735H66.0997C72.9787 52.1735 78.4819 57.6789 78.3099 64.5608V67.3135C74.0105 68.1737 70.571 71.9587 70.571 76.604L70.2271 78.6685H46.1507L45.8067 76.4319C45.8067 71.9587 42.3672 68.1737 38.0679 67.3135V64.5608C38.0679 57.6789 43.571 52.1735 50.45 52.1735ZM62.3163 48.7326V20.002L84.501 20.001V68.1737C83.8131 67.8296 82.7812 67.4855 81.9214 67.3135V64.5608C81.9214 55.7864 74.8704 48.7326 66.0997 48.7326H62.3163ZM80.3736 94.1546L81.7494 86.2405C82.7812 86.0684 83.8131 85.7243 84.673 85.3802V96.3912H79.6857C80.0296 95.703 80.2016 95.0148 80.3736 94.1546Z" fill="#D1BCB2"/>
</g>
</svg>
