<svg width="141" height="120" viewBox="0 0 141 120" fill="none" xmlns="http://www.w3.org/2000/svg">
<g id="icon">
<path id="Vector" fill-rule="evenodd" clip-rule="evenodd" d="M70.4991 35.7604V73.2965C70.0289 74.963 69.7765 76.7222 69.7765 78.5395C69.7765 80.3568 70.0289 82.116 70.4991 83.7824V92.0687L73.1606 89.4458C71.9844 87.7364 71.0767 85.8292 70.4991 83.7839V92.0687L45.6512 67.5784C17.0198 39.3544 56.6162 8.05801 70.4991 35.7595V35.7604ZM99.743 62.5232C119.351 35.8416 83.5561 9.70758 70.4991 35.7604V73.2953C72.7828 65.2057 80.2195 59.277 89.0384 59.277C92.9983 59.277 96.6808 60.4728 99.7427 62.523L99.743 62.5232ZM81.7049 73.6975C81.6722 73.6975 81.6464 73.7219 81.6464 73.7546C81.6464 73.7874 81.6722 73.8118 81.7049 73.8118C81.7377 73.8118 81.7621 73.7874 81.7621 73.7546C81.7621 73.7219 81.7377 73.6975 81.7049 73.6975ZM89.0392 62.0812C98.1282 62.0812 105.499 69.4495 105.499 78.5406C105.499 87.6296 98.1287 95 89.0392 95C79.9486 95 72.5798 87.6301 72.5798 78.5406C72.5798 69.4501 79.9481 62.0812 89.0392 62.0812ZM96.5443 82.7892C95.8558 86.3057 92.7583 88.9603 89.0392 88.9603C85.3201 88.9603 82.2225 86.3062 81.5341 82.7892H96.5448H96.5443ZM81.7048 70.8921C83.2844 70.8921 84.5656 72.1738 84.5656 73.7543C84.5656 75.3352 83.2839 76.6164 81.7048 76.6164C80.1239 76.6164 78.8427 75.3347 78.8427 73.7543C78.8427 72.1733 80.1244 70.8921 81.7048 70.8921ZM96.373 70.8921C97.954 70.8921 99.2352 72.1738 99.2352 73.7543C99.2352 75.3352 97.9535 76.6164 96.373 76.6164C94.7921 76.6164 93.5109 75.3347 93.5109 73.7543C93.5109 72.1733 94.7926 70.8921 96.373 70.8921Z" fill="#D1BCB2"/>
</g>
</svg>
