<svg width="140" height="120" viewBox="0 0 140 120" fill="none" xmlns="http://www.w3.org/2000/svg">
<g id="icon">
<path id="Union" fill-rule="evenodd" clip-rule="evenodd" d="M85.0799 42.5308C86.1359 43.5633 87.5527 44.1415 89.0275 44.1415C90.5022 44.1415 91.9183 43.5633 92.9751 42.5308C95.8574 39.8714 96.8483 35.7802 97.017 31.9877C97.1505 28.9656 96.6556 25.1076 93.4659 23.8204H93.4653C90.6071 22.7265 87.4474 22.7265 84.589 23.8204C81.3993 25.1077 80.9039 28.9656 81.038 31.9877C81.2066 35.7802 82.1969 39.8714 85.0799 42.5308ZM70.9463 47.4902L71.9281 47.0563C73.7929 46.2375 75.7102 45.5442 77.6669 44.9803C69.7484 42.3569 61.8311 43.1265 53.9144 43.8959C44.2754 44.8328 34.6374 45.7696 25 40.582V75.1655C34.6398 80.3549 44.2842 76.1007 53.9259 71.8476L53.9261 71.8476C56.3239 70.7898 58.7216 69.7322 61.1191 68.8199V68.8192C63.6206 61.7634 66.7314 54.9402 70.4165 48.4278L70.9463 47.4902ZM95.2315 47.0723C98.5364 47.6741 101.759 48.6621 104.836 50.0147L104.836 50.0137C109.002 57.3645 112.407 65.1228 115 73.1686H114.999L114.514 89.4183L114.455 91.3969C114.429 92.3078 114.051 93.1729 113.4 93.8081L113.395 93.8133C112.742 94.4445 111.87 94.7974 110.963 94.7974C110.699 94.7987 110.436 94.7667 110.181 94.7026C109.431 94.5314 108.759 94.1165 108.27 93.5219C107.779 92.9279 107.499 92.1876 107.471 91.4172H107.471V91.3975L106.921 73.1891V73.1538H106.926L103.246 65.0414L103.9 97.0003H74.1515L74.8052 65.0431L71.1253 73.1555H71.1305V73.1902L70.581 91.3986V91.4182C70.553 92.1886 70.2724 92.9289 69.7827 93.5229C69.2924 94.1175 68.6205 94.5324 67.8711 94.7036C67.6152 94.7677 67.3522 94.7997 67.0885 94.7984C66.1815 94.7984 65.3097 94.4455 64.6567 93.8143H64.6573L64.6521 93.8091C64.0011 93.1739 63.6228 92.3088 63.5967 91.3979L63.5375 89.4193L63.0518 73.1696C65.6443 65.1234 69.0502 57.3652 73.2158 50.0147C76.2915 48.6621 79.515 47.6741 82.8192 47.0723L86.7323 57.7148L87.3313 49.8605H90.7247L91.3237 57.7148L95.2315 47.0723Z" fill="#DBA514"/>
</g>
</svg>
