<svg width="140" height="120" viewBox="0 0 140 120" fill="none" xmlns="http://www.w3.org/2000/svg">
<g id="icon">
<path id="Union" fill-rule="evenodd" clip-rule="evenodd" d="M60.9347 49.4124C69.1991 49.4124 75.8616 42.7505 75.8616 34.4855C75.8616 26.2211 69.1997 19.5586 60.9347 19.5586C52.6703 19.5586 46.0078 26.2205 46.0078 34.4855C46.0078 42.6657 52.6697 49.4124 60.9347 49.4124ZM59.4164 26.3054V24.5348C59.4164 24.1977 59.6694 23.9442 60.007 23.9442H61.9465C62.2836 23.9442 62.5371 24.1971 62.5371 24.5348V26.306C64.5612 26.559 66.1631 28.0773 66.3319 30.1008C66.3319 30.2697 66.3319 30.4379 66.1631 30.5226C66.079 30.6067 65.9101 30.6914 65.7413 30.6914H63.8018C63.5489 30.6914 63.2959 30.5226 63.2112 30.2697C63.1271 29.7638 62.6206 29.342 62.1147 29.342H60.4282C59.5006 29.342 58.657 30.0167 58.5729 30.9444C58.4888 31.4503 58.6571 31.9562 58.9947 32.2939C59.3318 32.631 59.8383 32.8845 60.2594 32.8845H61.7771C63.1266 32.8845 64.476 33.4751 65.4031 34.4869C66.3308 35.4987 66.7525 36.8482 66.6678 38.1977C66.499 40.306 64.8125 41.9925 62.62 42.4985L62.6212 44.3526C62.6212 44.6896 62.3683 44.9432 62.0306 44.9432H60.0911C59.7541 44.9432 59.5005 44.6902 59.5005 44.3526V42.5813C57.4764 42.3283 55.8746 40.81 55.7057 38.7865C55.7057 38.6177 55.7057 38.4494 55.8746 38.3647C55.9587 38.2806 56.1275 38.1959 56.2963 38.1959H58.2358C58.4888 38.1959 58.7417 38.3647 58.8264 38.6177C58.9106 39.1236 59.417 39.5454 59.9229 39.5454H61.6094C62.5371 39.5454 63.3807 38.8706 63.4647 37.9429C63.5488 37.437 63.3806 36.9311 63.0429 36.5935C62.7059 36.2564 62.1994 36.0029 61.7782 36.0029H60.5135C57.8993 36.0029 55.7063 34.0634 55.4533 31.6174C55.1156 29.0885 56.8862 26.7273 59.4162 26.3056L59.4164 26.3054ZM95.0885 27.9924L104.365 39.5457C105.546 40.9793 104.534 43.0876 102.679 43.0876H98.2092L98.2086 62.9056C98.009 62.9056 97.8618 62.9583 97.6843 63.0219L97.623 63.0438C97.5943 63.0539 97.5647 63.0642 97.5338 63.0744L88.5948 66.1945V43.0876H84.1252C82.2699 43.0876 81.2581 40.9792 82.4387 39.5457L91.7155 27.9924C92.5584 26.8959 94.245 26.8959 95.0885 27.9924ZM73.668 50.5934V64.3396H79.7399C81.0046 64.3396 82.27 64.6767 83.3658 65.3514V50.5933C83.3658 49.6656 82.607 48.9068 81.6793 48.9068H75.4386C74.4268 48.8221 73.668 49.5816 73.668 50.5933V50.5934ZM60.4287 54.5566C59.501 54.5566 58.7422 55.3155 58.7422 56.2431V64.3393C59.3328 64.2552 59.8387 64.2552 60.4287 64.2552H68.356V56.2438C68.356 55.3161 67.5972 54.5573 66.6695 54.5573L60.4287 54.5566ZM87.2462 71.4229L99.0523 67.2905H99.0521C100.402 66.7846 102.004 67.2064 103.016 68.2182C103.775 68.977 104.196 69.9888 104.112 71.0853C104.112 72.1818 103.606 73.1935 102.763 73.8683L79.5715 93.0116C77.4632 94.867 74.6801 95.7105 71.8971 95.5417L57.3078 94.614C56.465 94.5293 55.5373 94.7823 54.8625 95.3729L50.5618 98.9988C49.5499 99.7583 48.2005 99.7583 47.2728 98.9147L36.6471 89.0479C35.5507 88.0361 35.6354 86.349 36.816 85.4225L54.5257 70.7486C56.2122 69.3992 58.3204 68.7245 60.4287 68.7245L79.6564 68.8086C80.4994 68.8086 81.343 69.1457 82.0177 69.7369C82.6083 70.4117 82.9454 71.2546 82.9454 72.0982C82.8606 73.6159 81.8488 74.8812 80.4153 75.2183L79.6564 75.3871C75.6087 76.3989 71.4762 77.0737 67.2596 77.3266L63.3801 77.5796C62.7901 77.6637 62.2842 77.9167 61.8624 78.3384C61.5253 78.7603 61.3565 79.3503 61.3565 79.9409C61.4406 80.5309 61.6936 81.0368 62.1154 81.4586C62.5372 81.7956 63.1272 81.9645 63.7178 81.9645L67.3438 81.7115C71.8974 81.4585 76.4516 80.6997 80.9212 79.6032L81.4271 79.5191C84.7161 78.6755 87.162 75.7236 87.2462 72.3506V71.4229Z" fill="#DBA514"/>
</g>
</svg>
