<svg width="141" height="120" viewBox="0 0 141 120" fill="none" xmlns="http://www.w3.org/2000/svg">
<g id="icon">
<path id="Vector" d="M55.8187 23.0005H70.4295C70.1188 27.7173 68.7133 32.5017 65.1805 42.5534C63.7816 46.5352 63.0714 48.6329 62.341 51.0362C60.539 56.9629 59.6167 61.8525 59.6167 66.5297C59.6167 73.3514 61.0264 78.7625 64.1306 86.3653C67.2111 93.9087 67.6359 94.9586 67.9854 97H52.3175C47.723 78.8346 46.1724 65.4976 47.6151 57.1054C49.1223 48.3351 51.8571 36.9632 55.8187 23.0012V23.0005ZM51.295 23.0005C47.4753 36.5582 44.819 47.6765 43.3253 56.3661C41.7865 65.3191 43.3036 78.826 47.8295 96.9993H37.8528C35.4491 96.9993 33.5 95.0503 33.5 92.6465V27.3531C33.5 24.9493 35.4491 23.0003 37.8528 23.0003L51.295 23.0005ZM84.7041 23.0005C84.9994 28.3135 86.4653 33.34 90.2102 43.9964C91.5895 47.9213 92.2847 49.9757 92.9919 52.3021C94.6797 57.8536 95.5278 62.3499 95.5278 66.5283C95.5278 72.6425 94.2921 77.257 91.3442 84.292C91.2663 84.4778 90.1973 87.005 89.8942 87.739C89.3486 89.0589 88.9254 90.1449 88.5552 91.1974C87.8316 93.2554 87.3324 95.1451 87.0619 96.9987H72.3956C71.9213 93.9362 71.7726 93.5625 68.1614 84.7183C65.2513 77.592 63.9701 72.6739 63.9701 66.5278C63.9701 62.3489 64.8181 57.8525 66.506 52.3015C67.2131 49.9752 67.9084 47.9208 69.2877 43.9958C73.0325 33.3394 74.4985 28.3134 74.7937 23L84.7041 23.0005ZM80.2929 79.5872C85.021 79.5872 87.9105 72.6524 87.9105 64.3526C87.9105 56.0529 85.021 49.1181 80.2929 49.1181C75.5648 49.1181 72.6752 56.0529 72.6752 64.3526C72.6752 72.6524 75.5648 79.5872 80.2929 79.5872ZM89.0678 23.0005H103.146C105.55 23.0005 107.499 24.9496 107.499 27.3534V92.6468C107.499 95.0505 105.55 96.9996 103.146 96.9996H91.4728C91.7164 95.6333 92.1118 94.2081 92.6626 92.642C93.0027 91.6737 93.3991 90.6563 93.9174 89.4024C94.2126 88.6881 95.2754 86.1753 95.3596 85.975C98.5109 78.4538 99.8813 73.3374 99.8813 66.5291C99.8813 61.8525 98.9589 56.9628 97.1569 51.0356C96.4266 48.6323 95.7164 46.5347 94.3175 42.5529C90.7849 32.5014 89.3793 27.7174 89.0685 23L89.0678 23.0005ZM80.2929 75.2344C79.0107 75.2344 77.0281 70.4763 77.0281 64.3524C77.0281 58.2285 79.0107 53.4703 80.2929 53.4703C81.5751 53.4703 83.5577 58.2285 83.5577 64.3524C83.5577 70.4763 81.575 75.2344 80.2929 75.2344Z" fill="#DBA514"/>
</g>
</svg>
