<?xml version="1.0" standalone="no"?>
<!DOCTYPE svg PUBLIC "-//W3C//DTD SVG 1.1//EN" "http://www.w3.org/Graphics/SVG/1.1/DTD/svg11.dtd" >
<svg xmlns="http://www.w3.org/2000/svg">
<metadata>Generated by IcoMoon</metadata>
<defs>
<font id="una-icon" horiz-adv-x="1024">
<font-face units-per-em="1024" ascent="960" descent="-64" />
<missing-glyph horiz-adv-x="1024" />
<glyph unicode="&#x20;" horiz-adv-x="512" d="" />
<glyph unicode="&#xe900;" glyph-name="award-icon" horiz-adv-x="1203" d="M601.597 789.329l-44.401-30.266-52.834 10.913-29.519-45.15-52.834-9.923-9.923-52.835-45.15-29.518 10.913-52.835-30.267-44.401 30.267-44.401-10.913-52.835 45.15-29.518 9.923-52.834 52.834-9.923 29.519-45.151 52.834 10.914 44.401-30.267 44.402 30.267 52.834-10.914 29.518 45.151 52.835 9.923 9.923 52.834 45.15 29.518-10.913 52.835 30.266 44.401-30.266 44.401 10.913 52.835-45.15 29.518-9.923 52.835-52.835 9.923-29.518 45.15-52.834-10.913-44.402 30.266zM601.597 709.949c96.263 0 174.636-78.378 174.636-174.636 0-96.262-78.378-174.636-174.636-174.636-96.262 0-174.636 78.378-174.636 174.636 0 96.263 78.378 174.636 174.636 174.636zM601.597 678.2c-79.103 0-142.884-63.782-142.884-142.885s63.782-142.884 142.884-142.884c79.102 0 142.884 63.782 142.884 142.884 0 79.104-63.782 142.885-142.884 142.885zM393.721 401.617l-133.455-207.635 119.070 23.815 31.749-111.129 108.649 181.086-12.154-2.481c-6.196-1.363-13.101 1.423-16.623 6.7l-25.797 39.441-46.141 8.931c-6.223 1.179-11.473 6.429-12.652 12.652l-8.931 46.141-3.715 2.479zM809.474 401.617l-3.721-2.481-8.931-46.141c-1.18-6.223-6.429-11.473-12.652-12.652l-46.141-8.931-25.797-39.441c-3.522-5.277-10.426-8.056-16.623-6.7l-12.154 2.481 108.649-181.086 31.749 111.129 119.072-23.815-133.451 207.636z" />
<glyph unicode="&#xe901;" glyph-name="design-icon" horiz-adv-x="1195" d="M471.464 723.202h-34.132v55.466c0 6.398-5.333 10.666-10.667 10.666-6.398 0-10.666-4.268-10.666-10.666v-55.466h-33.069c-18.135 0-31.997-14.934-31.997-31.998v-85.333c0-3.202 2.132-6.398 4.268-8.534l66.132-44.801c2.131-1.066 4.267-2.131 6.398-2.131s4.268 1.065 6.398 2.131l66.132 44.801c3.202 2.131 4.268 5.332 4.268 8.534v85.333c-1.066 17.064-15.999 31.998-33.064 31.998zM437.332 652.802c0-5.333-5.333-10.666-10.667-10.666-6.398 0-10.666 5.332-10.666 10.666v10.666c0 6.399 4.268 10.667 10.666 10.667 5.333 0 10.667-4.268 10.667-10.667v-10.666zM639.991 704c-5.333 0-10.667-5.333-10.667-10.666v-90.666h33.069c6.398 0 10.666-4.268 10.666-10.666s-4.268-10.667-10.666-10.667h-33.069v-40.532h33.069c6.398 0 10.666-4.268 10.666-10.666s-4.268-10.666-10.666-10.666l-33.069-0.005v-40.532h33.069c6.398 0 10.666-4.268 10.666-10.666s-4.268-10.667-10.666-10.667h-33.069v-41.598h33.069c6.398 0 10.666-4.268 10.666-10.666s-4.268-10.666-10.666-10.666l-33.069-0.005v-40.532h33.069c6.398 0 10.666-4.268 10.666-10.666s-4.268-10.667-10.666-10.667h-33.069v-40.532h33.069c6.398 0 10.666-4.268 10.666-10.666s-4.268-10.666-10.666-10.666h-33.069v-40.532h33.069c6.398 0 10.666-4.268 10.666-10.667s-4.268-10.666-10.666-10.666l-33.069-0.005v-91.732c0-6.398 5.333-10.666 10.667-10.666 164.269 0 298.658 134.4 298.658 298.657 0 164.27-134.402 298.67-298.658 298.67v0.003zM727.46 235.743v339.2c68.264-28.796 113.064-94.934 113.064-169.6 0-74.668-44.8-140.799-113.064-169.6zM556.794 160.004l39.467 52.267c1.066 2.136 2.132 5.332 1.066 8.534l-87.469 357.328-65.067-43.734c0-1.066-1.066-1.066-1.066-1.066l91.737-372.262v-43.735c0-6.398 5.333-10.666 10.667-10.666 6.398 0 10.666 4.268 10.666 10.666v42.668zM501.333 117.334c0-6.399-5.332-10.667-10.666-10.667h-128.002c-6.398 0-10.666 4.268-10.666 10.667s4.268 10.666 10.666 10.666h128.002c6.403 0 10.671-5.333 10.671-10.666h-0.005zM318.936 162.138l91.731 371.195-67.203 44.801-87.464-357.328c0-3.202 0-6.398 2.136-8.534l39.468-53.335v-41.599c0-6.398 4.267-10.666 10.666-10.666 5.332 0 10.666 4.268 10.666 10.666v44.801z" />
<glyph unicode="&#xe902;" glyph-name="forniture-icon" horiz-adv-x="1203" d="M751.885 351.833v437.501h199.582v-651.846h-19.072v-30.829h-55.774v30.829h-124.736v120.386c8.805 13.213 14.675 29.362 14.675 46.98s-5.87 33.766-14.675 46.979zM803.248 466.347c8.805 0 14.675 7.34 14.675 14.681v85.152c0 7.34-5.87 14.681-14.675 14.681-7.338 0-14.676-7.34-14.676-14.681v-85.152c0-7.34 7.338-14.681 14.676-14.681zM684.378 356.238c14.676 0 27.884-5.873 36.688-14.682h0.009c10.272-8.808 16.143-22.022 14.675-36.703 0-27.895-22.013-51.384-51.363-51.384h-4.402c-0.734 0-1.101-0.367-1.468-0.734s-0.734-0.734-1.468-0.734l-1.467-1.469c0-0.734-0.367-1.101-0.734-1.468s-0.734-0.735-0.734-1.469l-1.468-1.468c-0.844-0.845-1.202-1.203-1.355-1.635-0.112-0.319-0.112-0.678-0.112-1.301v-1.469l-13.208-79.278c-1.468-11.745-13.208-22.022-26.416-22.022h-24.612l14.345-33.766h-55.766l-22.782 33.766h-102.668l-22.782-33.766h-55.765l14.345 33.766h-9.941c-13.208 0-24.948 8.809-26.416 22.022l-13.207 79.278v1.469c0 0-1.468 1.468-1.468 2.936l-4.402 4.404c0 1.469-1.468 1.469-1.468 1.469s-1.468 1.468-2.935 1.468h-4.402c-27.883 0-51.363 22.022-51.363 51.384 0 27.895 22.013 51.384 51.363 51.384 14.676 0 27.883-5.873 36.688-14.682s14.675-22.022 14.675-36.703v-2.936l17.61-121.854c1.468-5.873 7.338-11.744 14.676-11.744h205.452c7.338 0 13.208 4.404 14.675 11.744l17.61 121.854v2.936c0 27.895 22.013 51.384 51.363 51.384zM408.494 197.681l-8.805 60.192h196.646l-8.805-60.192h-179.037zM430.507 514.786h133.544c58.701 0 105.661-46.979 104.194-105.705v-23.49c-36.688-7.34-66.039-39.639-66.039-79.279l-2.935-17.617h-205.452l-2.935 19.086c0 38.171-29.35 70.47-66.038 77.81v23.49c0 58.726 46.96 105.705 105.661 105.705zM531.766 544.148v245.168l189.309 0.009v-411.074c-5.87 2.936-14.676 5.873-22.013 7.34v23.49c0 74.875-60.169 135.067-135.012 135.067h-32.285zM685.855 156.547l11.74 67.534c8.805 1.469 17.61 4.405 24.948 7.341v-93.961h-42.558c2.935 5.873 4.402 11.745 5.87 19.086z" />
<glyph unicode="&#xe905;" glyph-name="Icon-namecalendar-gold" d="M918.72 839.11v62.579c0 8.64-7.004 15.644-15.644 15.644s-15.644-7.003-15.644-15.644v-62.577h-78.223v62.577c0 8.64-7.004 15.644-15.644 15.644-8.642 0-15.644-7.003-15.644-15.644v-62.577h-78.223v62.577c0 8.64-7.004 15.644-15.644 15.644-8.642 0-15.644-7.003-15.644-15.644v-62.577h-78.223v62.577c0 8.64-7.004 15.644-15.644 15.644-8.642 0-15.644-7.003-15.644-15.644v-62.577h-78.223v62.577c0 8.64-7.004 15.644-15.644 15.644-8.642 0-15.646-7.003-15.646-15.644v-62.577h-78.221v62.577c0 8.64-7.004 15.644-15.646 15.644-8.64 0-15.644-7.003-15.644-15.644v-62.577h-78.223v62.577c0 8.64-7.002 15.644-15.644 15.644-8.64 0-15.644-7.003-15.644-15.644v-62.577h-15.644c-25.921 0-46.933-21.012-46.933-46.933v-172.089c0-8.64 7.004-15.644 15.644-15.644s15.644 7.004 15.644 15.644v62.577h688.355c8.642 0 15.644 7.004 15.644 15.644s-7.002 15.644-15.644 15.644h-688.361v78.223c0 8.641 7.005 15.644 15.644 15.644h719.644c8.64 0 15.644-7.003 15.644-15.644v-625.777c0-8.64-7.004-15.644-15.644-15.644h-265.954c-8.64 0-15.644-7.004-15.644-15.644s7.004-15.644 15.644-15.644h265.956c25.92 0 46.933 21.011 46.933 46.933v625.775c0 25.921-21.013 46.933-46.933 46.933h-15.644zM620.478 123.206l-118.21 78.799c-17.579 11.612-41.129 7.787-54.129-8.791l-33.182-42.46h-20.337c-37.749 20.774-71.821 47.625-100.843 79.473-32.139 29.248-59.177 63.648-80.006 101.783l-3.629 6.633c-2.118 3.859-1.085 8.687 2.426 11.343l44.383 34.417c16.614 12.986 20.45 36.565 8.809 54.146l-78.817 118.193c-11.928 17.901-35.818 23.268-54.256 12.188l-49.39-29.647c-16.823-9.916-29.157-25.956-34.417-44.759-18.288-66.381-4.959-180.521 161.92-347.401 132.445-132.476 231.664-168.162 300.17-168.162 15.942-0.070 31.825 2.003 47.215 6.163 18.81 5.254 34.85 17.589 44.759 34.417l29.724 49.421c11.095 18.432 5.726 42.33-12.188 54.244zM605.828 85.050l-29.724-49.421c-5.788-9.909-15.185-17.197-26.221-20.337-82.509-22.622-195.087 32.038-316.988 153.941-121.9 121.901-176.55 234.494-153.912 317.003 3.142 11.036 10.428 20.433 20.337 26.221l49.421 29.724c4.123 2.475 9.465 1.267 12.124-2.737l78.88-118.255c2.59-3.93 1.732-9.19-1.971-12.094l-44.242-34.417c-15.778-12.077-20.289-33.909-10.591-51.251l0.031-0.030 3.489-6.4c22.222-40.779 51.062-77.585 85.34-108.915 31.339-34.306 68.169-63.157 108.979-85.372l6.351-3.473c14.494-8.126 32.514-6.385 45.182 4.367 0.1 0.085 0.211 0.158 0.322 0.233v0c0.132 0.087 0.265 0.173 0.382 0.284 1.965 1.713 3.761 3.61 5.365 5.664l34.417 44.241c2.901 3.71 8.166 4.57 12.094 1.971l118.193-78.801c4.026-2.662 5.233-8.021 2.741-12.145zM251.923 775.282c-0.937 0.475-1.948 0.792-2.989 0.939-2.001 0.469-4.085 0.469-6.084 0-0.981-0.171-1.929-0.486-2.816-0.939-1.003-0.345-1.954-0.818-2.833-1.408l-2.33-1.877c-6.050-6.169-6.050-16.045 0-22.215 2.978-2.887 6.959-4.511 11.108-4.537 0.992 0.026 1.982 0.13 2.957 0.314 1.041 0.145 2.050 0.463 2.989 0.939 0.994 0.344 1.943 0.817 2.816 1.407l2.347 1.877c6.050 6.169 6.050 16.045 0 22.215l-2.347 1.877c-0.877 0.59-1.824 1.063-2.818 1.408zM358.477 776.221c1.041-0.147 2.050-0.464 2.987-0.939 0.996-0.345 1.941-0.818 2.818-1.408l2.347-1.877c6.050-6.169 6.050-16.045 0-22.215l-2.347-1.877c-0.873-0.59-1.82-1.063-2.816-1.407-0.937-0.476-1.946-0.794-2.989-0.939-0.975-0.183-1.965-0.288-2.957-0.314-4.147 0.026-8.128 1.649-11.108 4.537-6.050 6.169-6.050 16.045 0 22.215l2.332 1.877c0.879 0.59 1.83 1.063 2.831 1.408 0.887 0.453 1.837 0.768 2.816 0.939 2.001 0.469 4.083 0.469 6.086 0zM470.965 775.282c-0.939 0.475-1.948 0.792-2.989 0.939-2.003 0.469-4.085 0.469-6.086 0-0.979-0.171-1.929-0.486-2.816-0.939-1.001-0.345-1.952-0.818-2.831-1.408l-2.332-1.877c-6.048-6.169-6.048-16.045 0-22.215 2.98-2.887 6.961-4.511 11.108-4.537 0.992 0.026 1.982 0.13 2.959 0.314 1.041 0.145 2.050 0.463 2.987 0.939 0.996 0.344 1.943 0.817 2.816 1.407l2.347 1.877c6.050 6.169 6.050 16.045 0 22.215l-2.347 1.877c-0.875 0.59-1.822 1.063-2.816 1.408zM577.476 776.221c1.041-0.147 2.052-0.464 2.989-0.939 0.994-0.345 1.941-0.818 2.818-1.408l2.347-1.877c6.048-6.169 6.048-16.045 0-22.215l-2.347-1.877c-0.875-0.59-1.822-1.063-2.816-1.407-0.939-0.476-1.948-0.794-2.989-0.939-0.975-0.183-1.967-0.288-2.957-0.314-4.149 0.026-8.13 1.649-11.108 4.537-6.050 6.169-6.050 16.045 0 22.215l2.33 1.877c0.879 0.59 1.83 1.063 2.833 1.408 0.887 0.453 1.835 0.768 2.816 0.939 1.999 0.469 4.081 0.469 6.084 0zM690.005 775.282c-0.937 0.475-1.946 0.792-2.987 0.939-2.003 0.469-4.085 0.469-6.086 0-0.981-0.171-1.929-0.486-2.816-0.939-1.001-0.345-1.952-0.818-2.831-1.408l-2.332-1.877c-6.050-6.169-6.050-16.045 0-22.215 2.98-2.887 6.959-4.511 11.108-4.537 0.992 0.026 1.982 0.13 2.957 0.314 1.043 0.145 2.052 0.463 2.989 0.939 0.996 0.344 1.943 0.817 2.816 1.407l2.347 1.877c6.050 6.169 6.050 16.045 0 22.215l-2.347 1.877c-0.877 0.59-1.822 1.063-2.818 1.408zM796.518 776.221c1.041-0.147 2.050-0.464 2.987-0.939 0.996-0.345 1.943-0.818 2.818-1.408l2.347-1.877c6.050-6.169 6.050-16.045 0-22.215l-2.347-1.877c-0.873-0.59-1.82-1.063-2.816-1.407-0.937-0.476-1.946-0.794-2.987-0.939-0.977-0.183-1.967-0.288-2.959-0.314-4.147 0.026-8.128 1.649-11.108 4.537-6.050 6.169-6.050 16.045 0 22.215l2.332 1.877c0.879 0.59 1.83 1.063 2.831 1.408 0.887 0.453 1.837 0.768 2.816 0.939 2.001 0.469 4.083 0.469 6.086 0zM911.823 747.905l2.347 1.877c6.050 6.169 6.050 16.045 0 22.215l-2.347 1.877c-0.875 0.59-1.822 1.063-2.816 1.408-0.939 0.475-1.948 0.792-2.989 0.939-2.003 0.469-4.085 0.469-6.084 0-0.981-0.171-1.931-0.486-2.816-0.939-1.003-0.345-1.954-0.818-2.833-1.408l-2.33-1.877c-6.050-6.169-6.050-16.045 0-22.215 2.978-2.887 6.959-4.511 11.106-4.537 0.992 0.026 1.982 0.13 2.959 0.314 1.041 0.145 2.050 0.463 2.987 0.939 0.994 0.344 1.941 0.817 2.816 1.407zM308.582 479.292c0 8.64 7.004 15.644 15.644 15.644v0.004h15.646v93.867h-15.646c-8.638 0-15.644 7.004-15.644 15.644s7.004 15.644 15.644 15.644h547.556c8.638 0 15.644-7.004 15.644-15.644v-375.467c0-8.64-7.004-15.644-15.644-15.644h-234.667c-8.642 0-15.644 7.004-15.644 15.644s7.002 15.644 15.644 15.644h46.933v93.867h-156.444c-8.642 0-15.646 7.004-15.646 15.644v109.51h-187.733c-8.638 0-15.644 7.004-15.644 15.644zM856.132 588.802h-140.8v-93.867h140.8v93.867zM715.332 463.646h140.8v-93.867h-140.8v93.867zM856.132 338.49h-140.8v-93.867h140.8v93.867zM543.249 588.802h140.8v-93.867h-140.8v93.867zM684.049 463.646h-140.8v-93.867h140.8v93.867zM371.166 588.802h140.8v-93.867h-140.8v93.867z" />
<glyph unicode="&#xe906;" glyph-name="Icon-namecancel" d="M512 896c-247.423 0-448-200.577-448-448 0-247.421 200.577-448 448-448 247.421 0 448 200.579 448 448 0 247.423-200.579 448-448 448zM0 448c0 282.77 229.23 512 512 512 282.772 0 512-229.23 512-512 0-282.772-229.228-512-512-512-282.77 0-512 229.228-512 512zM345.368 614.632c12.497 12.497 32.758 12.497 45.255 0l121.372-121.372 121.372 121.372c12.498 12.497 32.757 12.497 45.255 0s12.498-32.758 0-45.255l-121.372-121.372 121.372-121.372c12.498-12.498 12.498-32.757 0-45.255s-32.757-12.498-45.255 0l-121.372 121.372-121.372-121.372c-12.497-12.498-32.758-12.498-45.255 0s-12.497 32.757 0 45.255l121.372 121.372-121.372 121.372c-12.497 12.497-12.497 32.758 0 45.255z" />
<glyph unicode="&#xe907;" glyph-name="Icon-namecart" d="M940.74 762.667c12.497 0 22.724-5.25 30.677-15.75 9.088-10.5 11.93-22.167 8.521-35l-73.28-364c-1.139-4.668-2.842-9.335-5.116-13.999-2.27-3.503-5.111-7.002-8.521-10.5-3.409-2.334-7.386-4.668-11.93-7.002-4.544-1.165-9.088-1.749-13.632-1.749h-565.809l20.451-112h504.454c21.589 0 35.221-10.5 40.905-31.501 21.585-22.165 32.38-48.998 32.38-80.499s-10.795-57.749-32.38-78.75c-20.45-22.165-46.016-33.25-76.693-33.25-30.673 0-56.806 11.085-78.396 33.25-20.45 21.001-30.673 47.249-30.673 78.75 0 19.831 5.111 38.498 15.339 56h-248.819c10.223-17.502 15.334-36.169 15.334-56 0-31.501-10.79-57.749-32.38-78.75-20.45-22.165-46.014-33.25-76.69-33.25s-56.808 11.085-78.395 33.25c-20.451 21.001-30.676 47.249-30.676 78.75 0 29.167 9.657 54.251 28.972 75.251l-119.297 652.749h-134.635c-13.634 0-20.451 7-20.451 21v14c0 14 6.817 21 20.451 21h144.861c10.225 0 18.746-3.5 25.563-10.5 7.953-5.833 13.066-14 15.338-24.5l13.634-77h720.893zM391.976 52.169c11.362 10.5 17.042 23.33 17.042 38.498s-5.681 27.998-17.042 38.498c-10.225 11.669-22.723 17.502-37.493 17.502s-27.836-5.833-39.197-17.502c-10.225-10.5-15.338-23.33-15.338-38.498s5.113-27.998 15.338-38.498c11.361-11.669 24.427-17.502 39.197-17.502s27.268 5.833 37.493 17.502zM751.569 52.169c11.362-11.669 24.431-17.502 39.198-17.502 14.771 0 27.268 5.833 37.495 17.502 11.362 10.5 17.041 23.33 17.041 38.498s-5.679 27.998-17.041 38.498c-10.227 11.669-22.724 17.502-37.495 17.502-14.767 0-27.836-5.833-39.198-17.502-10.223-10.5-15.339-23.33-15.339-38.498s5.116-27.998 15.339-38.498zM855.531 370.667l68.169 336h-693.626l61.353-336h564.105z" />
<glyph unicode="&#xe908;" glyph-name="Icon-namechevron_down" d="M16.662 723.433c22.216 22.851 58.237 22.851 80.453 0l414.885-426.739 414.888 426.739c22.213 22.851 58.236 22.851 80.45 0s22.213-59.901 0-82.752l-455.112-468.114c-22.216-22.851-58.236-22.851-80.453 0l-455.111 468.114c-22.217 22.851-22.217 59.901 0 82.752z" />
<glyph unicode="&#xe909;" glyph-name="Icon-namechevron_left" d="M714.29-47.338c22.851 22.213 22.851 58.236 0 80.457l-426.739 414.881 426.739 414.885c22.851 22.216 22.851 58.237 0 80.453s-59.901 22.217-82.752 0l-468.114-455.111c-22.851-22.216-22.851-58.236 0-80.453l468.114-455.112c22.851-22.213 59.901-22.213 82.752 0z" />
<glyph unicode="&#xe90a;" glyph-name="Icon-namechevron_right" d="M309.71-47.338c-22.851 22.213-22.851 58.236 0 80.457l426.738 414.881-426.739 414.885c-22.851 22.216-22.851 58.237 0 80.453s59.901 22.217 82.752 0l468.114-455.111c22.851-22.216 22.851-58.236 0-80.453l-468.114-455.112c-22.851-22.213-59.901-22.213-82.752 0z" />
<glyph unicode="&#xe90b;" glyph-name="Icon-namechevron_up" d="M471.774 723.433c22.216 22.851 58.236 22.851 80.453 0l455.112-468.115c22.213-22.851 22.213-59.9 0-82.752s-58.236-22.851-80.45 0l-414.888 426.739-414.885-426.739c-22.216-22.851-58.237-22.851-80.453 0s-22.217 59.901 0 82.752l455.111 468.115z" />
<glyph unicode="&#xe90c;" glyph-name="love-icon" horiz-adv-x="1203" d="M601.592 654.845v0.008c-118.467 236.386-456.357-30.676-212.035-271.521l212.035-208.984v70.697c4.929-17.453 12.675-33.728 22.711-48.315l-22.711-22.382v70.71c-4.012 14.22-6.166 29.232-6.166 44.739s2.154 30.519 6.166 44.74v320.308zM851.14 426.469c167.322 227.683-138.128 450.693-249.548 228.376v-320.298c19.488 69.031 82.947 119.623 158.202 119.623 33.791 0 65.215-10.204 91.343-27.699l0.003-0.002zM697.215 331.115c-0.279 0-0.499-0.208-0.499-0.487s0.22-0.488 0.499-0.488c0.28 0 0.488 0.208 0.488 0.488s-0.208 0.487-0.488 0.487zM759.801 430.24c77.559 0 140.457-62.876 140.457-140.454 0-77.559-62.893-140.454-140.457-140.454-77.573 0-140.454 62.89-140.454 140.454 0 77.572 62.876 140.454 140.454 140.454zM823.845 253.532c-5.875-30.007-32.307-52.66-64.044-52.66s-58.169 22.648-64.044 52.66h128.087zM697.214 355.054c13.479 0 24.412-10.937 24.412-24.424 0-13.49-10.937-24.423-24.412-24.423-13.49 0-24.423 10.937-24.423 24.423 0 13.491 10.937 24.424 24.423 24.424zM822.383 355.054c13.491 0 24.424-10.937 24.424-24.424 0-13.49-10.937-24.423-24.424-24.423-13.49 0-24.423 10.937-24.423 24.423 0 13.491 10.937 24.424 24.423 24.424z" />
<glyph unicode="&#xe90d;" glyph-name="Icon-nameclose" d="M572.557 447.991l268.463 268.463c16.678 16.665 16.678 43.705 0 60.369-16.678 16.679-43.691 16.679-60.369 0l-268.463-268.463-268.475 268.463c-16.679 16.679-43.691 16.679-60.369 0-16.679-16.665-16.679-43.705 0-60.369l268.476-268.463-268.476-268.459c-16.679-16.666-16.679-43.708 0-60.369 8.34-8.329 19.269-12.497 30.185-12.497s21.845 4.169 30.185 12.51l268.475 268.463 268.463-268.463c8.337-8.341 19.268-12.51 30.182-12.51 10.918 0 21.845 4.169 30.187 12.51 16.678 16.666 16.678 43.703 0 60.369l-268.463 268.446z" />
<glyph unicode="&#xe90e;" glyph-name="Icon-namecomment---gold" d="M533.244 804.262c-51.947 0.135-103.189-12.001-149.556-35.421l-0.105-0.053c-113.457-56.704-185.149-172.632-185.199-299.471v-0.060c-0.135-51.947 12.001-103.189 35.422-149.559 3.334-6.601 3.894-14.259 1.555-21.274l-63.526-190.579 190.58 63.526c7.015 2.338 14.673 1.779 21.274-1.553 46.367-23.42 97.609-35.558 149.556-35.422h0.064c126.835 0.047 242.765 71.74 299.469 185.199l0.051 0.102c23.42 46.37 35.558 97.613 35.422 149.559l27.733 0.073h-27.733v20.553c-9.719 169.427-144.951 304.657-314.377 314.38h-20.629zM923.716 469.367c0.154-60.651-14.012-120.478-41.348-174.618-66.099-132.211-201.195-215.753-349.009-215.821-56.759-0.145-112.797 12.254-164.127 36.25l-232.478-77.495c-9.965-3.319-20.952-0.725-28.38 6.703-7.428 7.424-10.022 18.415-6.7 28.378l77.493 232.478c-23.995 51.332-36.393 107.371-36.249 164.13 0.069 147.809 83.609 282.905 215.815 349.004l-0.052-0.026 12.504-24.755-12.399 24.808-0.053-0.026c54.141 27.336 113.971 41.504 174.622 41.352h21.295c0.512 0 1.020-0.014 1.527-0.042 198.259-10.938 356.561-169.241 367.497-367.496 0.030-0.508 0.043-1.020 0.043-1.527v-21.295z" />
<glyph unicode="&#xe90f;" glyph-name="Icon-namecomment" d="M533.244 804.262c-51.947 0.135-103.189-12.001-149.556-35.421l-0.105-0.053c-113.457-56.704-185.149-172.632-185.199-299.471v-0.060c-0.135-51.947 12.001-103.189 35.422-149.559 3.334-6.601 3.894-14.259 1.555-21.274l-63.526-190.579 190.58 63.526c7.015 2.338 14.673 1.779 21.274-1.553 46.367-23.42 97.609-35.558 149.556-35.422h0.064c126.835 0.047 242.765 71.74 299.469 185.199l0.051 0.102c23.42 46.37 35.558 97.613 35.422 149.559l27.733 0.073h-27.733v20.553c-9.719 169.427-144.951 304.657-314.377 314.38h-20.629zM923.716 469.367c0.154-60.651-14.012-120.478-41.348-174.618-66.099-132.211-201.195-215.753-349.009-215.821-56.759-0.145-112.797 12.254-164.127 36.25l-232.478-77.495c-9.965-3.319-20.952-0.725-28.38 6.703-7.428 7.424-10.022 18.415-6.7 28.378l77.493 232.478c-23.995 51.332-36.393 107.371-36.249 164.13 0.069 147.809 83.609 282.905 215.815 349.004l-0.052-0.026 12.504-24.755-12.399 24.808-0.053-0.026c54.141 27.336 113.971 41.504 174.622 41.352h21.295c0.512 0 1.020-0.014 1.527-0.042 198.259-10.938 356.561-169.241 367.497-367.496 0.030-0.508 0.043-1.020 0.043-1.527v-21.295z" />
<glyph unicode="&#xe911;" glyph-name="man-icon" horiz-adv-x="1195" d="M726.015 597.071c9.011-8.811 21.101-13.745 33.686-13.745s24.668 4.934 33.686 13.745c24.596 22.694 33.051 57.605 34.491 89.968 1.139 25.789-3.084 58.71-30.303 69.694h-0.005c-24.39 9.335-51.353 9.335-75.744 0-27.219-10.985-31.446-43.906-30.302-69.694 1.439-32.363 9.889-67.274 34.491-89.968zM605.408 554.75l8.378 3.703c15.913 6.987 32.274 12.903 48.971 17.715-67.571 22.386-135.132 15.819-202.688 9.254-82.253-7.995-164.497-15.989-246.736 28.279v-295.113c82.26-44.283 164.559-7.98 246.834 28.313h0.002c20.461 9.027 40.922 18.051 61.38 25.836v0.006c21.346 60.209 47.892 118.434 79.338 174.007l4.521 8.001zM812.642 558.316c28.202-5.135 55.701-13.566 81.958-25.108v0.009c35.55-62.727 64.606-128.931 86.733-197.588h-0.009l-4.139-138.664-0.503-16.884c-0.222-7.773-3.447-15.155-9.003-20.576l-0.043-0.044c-5.572-5.386-13.013-8.398-20.753-8.398-2.253-0.011-4.497 0.262-6.673 0.809-6.4 1.461-12.134 5.001-16.307 10.075-4.19 5.069-6.579 11.386-6.818 17.96v0 0.168l-4.693 155.378v0.301h0.043l-31.403 69.226 5.581-272.716h-253.854l5.578 272.701-31.402-69.226h0.044v-0.296l-4.689-155.378v-0.167c-0.239-6.574-2.633-12.891-6.812-17.96-4.184-5.074-9.917-8.614-16.312-10.075-2.184-0.547-4.428-0.82-6.678-0.809-7.74 0-15.179 3.011-20.751 8.398h0.005l-0.044 0.044c-5.555 5.42-8.783 12.803-9.006 20.576l-0.505 16.884-4.145 138.664c22.123 68.661 51.186 134.864 86.733 197.588 26.246 11.542 53.753 19.973 81.949 25.108l33.392-90.816 5.111 67.023h28.957l5.111-67.023 33.347 90.816z" />
<glyph unicode="&#xe912;" glyph-name="Icon-namedown-arrow" d="M843.068 270.451c13.687 13.948 13.687 37.167 0 51.605-13.227 13.952-35.243 13.952-48.435 0l-248.102-261.675v863.49c-0.030 20.129-15.198 36.128-34.283 36.128s-34.748-15.999-34.748-36.128v-863.49l-247.637 261.675c-13.689 13.952-35.734 13.952-48.929 0-13.689-14.438-13.689-37.687 0-51.605l306.832-323.622c13.227-14.438 35.243-14.438 48.435 0l306.867 323.622z" />
<glyph unicode="&#xe913;" glyph-name="Icon-nameemail-gold" d="M937.869 562.018c0.299-0.937 0.495-1.905 0.582-2.886 0.009-0.143 0.047-0.275 0.085-0.407v-0.002c0.043-0.143 0.085-0.288 0.087-0.444v-483.556c-0.021-9.045-2.948-17.845-8.35-25.101-0.021-0.032-0.038-0.064-0.053-0.096-0.013-0.030-0.026-0.060-0.036-0.090-0.028-0.068-0.058-0.139-0.109-0.213s-0.122-0.119-0.194-0.169c-0.023-0.015-0.047-0.030-0.070-0.047-0.043-0.032-0.083-0.066-0.119-0.111-8-10.571-20.478-16.798-33.734-16.838h-768.001c-13.205 0.058-25.632 6.255-33.622 16.768-0.076 0.083-0.171 0.16-0.26 0.228-0.077 0.062-0.149 0.117-0.195 0.171-0.054 0.062-0.083 0.139-0.112 0.215-0.024 0.062-0.048 0.126-0.086 0.183-5.402 7.253-8.328 16.053-8.348 25.101v483.595c0 0.149 0.042 0.288 0.085 0.427v0c0.042 0.139 0.085 0.277 0.085 0.427 0.092 0.966 0.287 1.92 0.583 2.846 0.195 0.838 0.465 1.658 0.81 2.447 0.398 0.772 0.875 1.5 1.422 2.176 0.548 0.802 1.183 1.542 1.892 2.204 0.109 0.096 0.189 0.209 0.269 0.322 0.087 0.122 0.174 0.243 0.299 0.348l136.731 106.225v110.095c0 23.565 19.104 42.667 42.667 42.667h154.127l61.726 47.915c15.245 11.89 36.623 11.89 51.868 0l61.711-47.915h154.127c23.565 0 42.667-19.103 42.667-42.667v-110.092l136.777-106.225c0.043-0.036 0.083-0.075 0.117-0.115 0.068-0.075 0.124-0.154 0.179-0.233 0.081-0.113 0.16-0.226 0.271-0.322 0.708-0.663 1.344-1.404 1.892-2.204 0.546-0.676 1.022-1.406 1.421-2.178 0.343-0.789 0.614-1.609 0.811-2.447zM520.388 853.974c-4.966 3.947-12 3.947-16.966 0l-32.713-25.472h82.49l-32.811 25.472zM131.54 60.501l371.884 288.868c4.969 3.94 11.998 3.94 16.966 0l371.981-288.868h-760.831zM910.172 82.677v0zM537.892 371.812l372.279-289.135v453.941l-233.472-181.291c-4.009-3.185-9.421-3.968-14.17-2.052-4.747 1.916-8.1 6.236-8.777 11.311-0.676 5.073 1.429 10.121 5.508 13.212l237.184 184.179-100.053 77.754v-109.897c0-7.853-6.366-14.221-14.221-14.221s-14.223 6.366-14.223 14.221v256.001c0 7.855-6.366 14.222-14.221 14.222h-483.556c-7.855 0-14.221-6.367-14.221-14.222v-256.001c0-7.853-6.366-14.221-14.221-14.221s-14.223 6.366-14.223 14.221v109.897l-100.053-77.754 236.772-183.851c6.21-4.815 7.339-13.751 2.524-19.962s-13.751-7.339-19.962-2.524l-233.059 180.977v-453.946l372.295 289.139c15.247 11.881 36.619 11.881 51.868 0zM682.624 544.070v56.887c0 94.257-76.41 170.667-170.667 170.667-94.255 0-170.667-76.41-170.667-170.667s76.412-170.667 170.667-170.667c7.857 0 14.223 6.368 14.223 14.223s-6.366 14.221-14.223 14.221c-78.545 0-142.221 63.676-142.221 142.221 0 78.547 63.676 142.223 142.221 142.223 78.547 0 142.223-63.675 142.223-142.223v-56.887c0-15.71-12.736-28.446-28.446-28.446s-28.444 12.736-28.444 28.446v56.887c0 7.855-6.368 14.223-14.223 14.223s-14.221-6.368-14.221-14.223c0-31.418-25.47-56.887-56.89-56.887-31.418 0-56.887 25.47-56.887 56.887 0 31.42 25.47 56.89 56.887 56.89 7.857 0 14.223 6.366 14.223 14.221s-6.366 14.223-14.223 14.223c-38.191 0.083-71.789-25.218-82.255-61.948-10.468-36.73 4.745-75.94 37.244-96.002 32.501-20.060 74.37-16.083 102.513 9.739 3.095-30.076 29.237-52.439 59.43-50.842 30.195 1.6 53.83 26.596 53.734 56.834z" />
<glyph unicode="&#xe914;" glyph-name="Icon-nameFacebook" d="M1024.166 448c0 282.792-229.205 512-512 512-282.792 0-512-229.208-512-512 0-255.578 187.125-467.392 432.042-505.826v357.696h-129.892v148.13h129.892v112.78c0 128.21 76.309 199.189 193.297 199.189 56.111 0 114.748-10.1 114.748-10.1v-125.966h-64.529c-63.684 0-83.319-39.557-83.319-79.956v-95.948h141.956l-22.724-148.13h-119.232v-357.696c244.638 38.434 431.761 250.249 431.761 505.826z" />
<glyph unicode="&#xe915;" d="M227.106 341.18l-35.644-133.065-130.278-2.756c-38.934 72.213-61.018 154.837-61.018 242.637 0 84.902 20.648 164.965 57.248 235.462h0.028l115.983-21.264 50.808-115.287c-10.634-31.003-16.43-64.283-16.43-98.911 0.004-37.585 6.812-73.596 19.302-106.816z" />
<glyph unicode="&#xe916;" d="M1015.211 543.656c5.884-30.973 8.947-62.956 8.947-95.648 0-36.655-3.853-72.41-11.196-106.901-24.922-117.367-90.048-219.849-180.267-292.373l-0.030 0.030-146.086 7.454-20.676 129.067c59.866 35.11 106.65 90.052 131.294 155.823h-273.779v202.549h491.793z" />
<glyph unicode="&#xe917;" d="M832.653 48.759l0.026-0.030c-87.74-70.524-199.202-112.721-320.533-112.721-194.979 0-364.501 108.979-450.979 269.359l165.921 135.821c43.238-115.396 154.556-197.542 285.057-197.542 56.094 0 108.646 15.164 153.741 41.634l166.767-136.521z" />
<glyph unicode="&#xe918;" d="M838.972 842.129l-165.862-135.792c-46.669 29.172-101.837 46.024-160.943 46.024-133.457 0-246.857-85.914-287.928-205.447l-166.822 136.551c85.212 164.289 256.871 276.535 454.75 276.535 124.228 0 238.135-44.252 326.805-117.871z" />
<glyph unicode="&#xe919;" glyph-name="Icon-namelike---gold" d="M533.7 760.938c44.48 45.499 104.819 71.062 167.735 71.062s123.26-25.565 167.735-71.066c44.497-45.48 69.495-107.174 69.495-171.503 0-64.332-24.998-126.028-69.5-171.506l-338.321-345.937c-10.415-10.65-27.298-10.65-37.713 0l-338.322 345.937c-92.637 94.72-92.637 248.293 0 343.014s242.831 94.721 335.468 0l21.713-22.201 21.709 22.201zM701.436 777.466c-48.768 0-95.539-19.815-130.018-55.085l-40.572-41.486c-5.001-5.113-11.785-7.986-18.854-7.986-7.074 0-13.858 2.873-18.859 7.986l-40.567 41.481c-71.808 73.425-188.233 73.425-260.042 0s-71.808-192.47 0-265.895l319.468-326.656 319.467 326.656c34.492 35.255 53.875 83.081 53.875 132.948s-19.379 97.69-53.871 132.943c-34.479 35.269-81.259 55.094-130.027 55.094z" />
<glyph unicode="&#xe91a;" glyph-name="Icon-namelike" d="M533.7 760.938c44.48 45.499 104.819 71.062 167.735 71.062s123.26-25.565 167.735-71.066c44.497-45.48 69.495-107.174 69.495-171.503 0-64.332-24.998-126.028-69.5-171.506l-338.321-345.937c-10.415-10.65-27.298-10.65-37.713 0l-338.322 345.937c-92.637 94.72-92.637 248.293 0 343.014s242.831 94.721 335.468 0l21.713-22.201 21.709 22.201zM701.436 777.466c-48.768 0-95.539-19.815-130.018-55.085l-40.572-41.486c-5.001-5.113-11.785-7.986-18.854-7.986-7.074 0-13.858 2.873-18.859 7.986l-40.567 41.481c-71.808 73.425-188.233 73.425-260.042 0s-71.808-192.47 0-265.895l319.468-326.656 319.467 326.656c34.492 35.255 53.875 83.081 53.875 132.948s-19.379 97.69-53.871 132.943c-34.479 35.269-81.259 55.094-130.027 55.094z" />
<glyph unicode="&#xe91b;" glyph-name="Icon-nameminus" d="M1002.667 533.333c14.225 0 21.333-9.481 21.333-28.444v-113.778c0-18.963-7.108-28.444-21.333-28.444h-981.333c-14.222 0-21.333 9.481-21.333 28.444v113.778c0 18.963 7.111 28.444 21.333 28.444h981.333z" />
<glyph unicode="&#xe91c;" glyph-name="price-icon" horiz-adv-x="1195" d="M519.976 538.348c70.523 0 127.376 56.848 127.376 127.376 0 70.523-56.848 127.376-127.376 127.376-70.523 0-127.376-56.848-127.376-127.376 0-69.804 56.848-127.376 127.376-127.376zM507.020 735.527v15.109c0 2.877 2.159 5.040 5.040 5.040h16.55c2.877 0 5.040-2.158 5.040-5.040v-15.114c17.272-2.159 30.942-15.115 32.382-32.382 0-1.441 0-2.877-1.44-3.599-0.718-0.718-2.159-1.44-3.599-1.44h-16.55c-2.158 0-4.317 1.44-5.040 3.599-0.718 4.317-5.040 7.916-9.357 7.916h-14.391c-7.916 0-15.114-5.757-15.832-13.674-0.718-4.317 0.719-8.634 3.599-11.516 2.877-2.877 7.199-5.040 10.792-5.040h12.951c11.516 0 23.031-5.040 30.942-13.674 7.916-8.634 11.515-20.15 10.792-31.665-1.44-17.991-15.832-32.382-34.541-36.7l0.010-15.822c0-2.876-2.158-5.040-5.040-5.040h-16.55c-2.876 0-5.040 2.159-5.040 5.040v15.115c-17.272 2.159-30.941 15.115-32.382 32.382 0 1.44 0 2.877 1.441 3.599 0.718 0.718 2.158 1.44 3.599 1.44h16.55c2.159 0 4.317-1.44 5.040-3.599 0.719-4.317 5.040-7.916 9.357-7.916h14.391c7.916 0 15.115 5.758 15.832 13.675 0.718 4.317-0.718 8.634-3.599 11.515-2.876 2.877-7.198 5.040-10.792 5.040h-10.792c-22.308 0-41.021 16.55-43.18 37.423-2.882 21.58 12.227 41.729 33.817 45.327l0.002 0.002zM811.422 721.132l79.159-98.588c10.078-12.233 1.442-30.224-14.387-30.224h-38.142l-0.005-169.114c-1.703 0-2.959-0.45-4.474-0.992l-0.523-0.187c-0.245-0.086-0.497-0.174-0.761-0.261l-76.279-26.625v197.179h-38.141c-15.832 0-24.466 17.992-14.391 30.224l79.162 98.588c7.193 9.357 21.585 9.357 28.783 0zM628.634 528.27v-117.301h51.814c10.792 0 21.59-2.877 30.941-8.634v125.936c0 7.916-6.475 14.391-14.391 14.391h-53.254c-8.634 0.723-15.109-5.758-15.109-14.391v-0.001zM515.658 494.45c-7.916 0-14.391-6.476-14.391-14.391v-69.088c5.040 0.718 9.357 0.718 14.391 0.718h67.646v68.364c0 7.916-6.475 14.391-14.391 14.391l-53.255 0.006zM744.501 350.525l100.744 35.263c11.519 4.317 25.19 0.718 33.825-7.916 6.477-6.475 10.069-15.109 9.353-24.466 0-9.357-4.318-17.99-11.511-23.748l-197.901-163.356c-17.991-15.833-41.74-23.031-65.488-21.59l-124.495 7.916c-7.192 0.723-15.108-1.436-20.867-6.476l-36.699-30.941c-8.635-6.481-20.15-6.481-28.066 0.718l-90.673 84.197c-9.356 8.634-8.633 23.031 1.441 30.937l151.123 125.217c14.391 11.515 32.381 17.272 50.372 17.272l164.076-0.718c7.194 0 14.392-2.877 20.15-7.921 5.040-5.758 7.916-12.951 7.916-20.15-0.724-12.951-9.358-23.748-21.59-26.625l-6.476-1.44c-34.54-8.634-69.804-14.392-105.786-16.55l-33.105-2.159c-5.035-0.718-9.352-2.877-12.951-6.475-2.877-3.6-4.317-8.635-4.317-13.675 0.718-5.035 2.877-9.352 6.476-12.951 3.599-2.876 8.634-4.317 13.674-4.317l30.942 2.159c38.857 2.159 77.72 8.634 115.86 17.991l4.317 0.718c28.066 7.199 48.938 32.388 49.656 61.171v7.916z" />
<glyph unicode="&#xe91d;" glyph-name="Icon-namenext-arrow" d="M689.549 779.066c-13.948 13.689-37.167 13.689-51.605 0-13.952-13.227-13.952-35.24 0-48.436l261.675-248.1h-863.49c-20.129-0.030-36.128-15.198-36.128-34.283s15.999-34.748 36.128-34.748h863.49l-261.675-247.637c-13.952-13.687-13.952-35.733 0-48.93 14.438-13.687 37.687-13.687 51.605 0l323.622 306.833c14.438 13.227 14.438 35.243 0 48.435l-323.622 306.866z" />
<glyph unicode="&#xe91e;" glyph-name="Icon-namenot-valid" d="M512 893.936c-123.871 0-229.162-44.043-315.871-132.129-86.709-86.709-130.064-191.312-130.064-313.807 0-123.87 43.355-229.16 130.064-315.87 88.086-86.71 193.376-130.065 315.871-130.065 123.87 0 229.16 43.355 315.87 130.065 86.71 88.087 130.065 193.377 130.065 315.87 0 123.871-44.043 229.162-132.13 315.871-86.71 86.709-191.312 130.064-313.805 130.064zM148.645 809.291c100.473 100.473 221.591 150.709 363.355 150.709 141.761 0 262.195-50.237 361.29-150.709 100.471-99.097 150.71-219.527 150.71-361.291 0-141.761-50.239-262.884-150.71-363.355-99.095-99.095-219.529-148.645-361.29-148.645-141.764 0-262.882 49.55-363.355 148.645-99.097 100.471-148.645 221.594-148.645 363.355 0 141.764 49.548 262.193 148.645 361.291zM489.291 712.258h45.419c8.259 0 14.452-2.753 18.581-8.258 5.505-4.129 7.57-9.634 6.193-16.516l-14.451-346.839c0-16.515-8.259-24.775-24.775-24.775h-16.516c-16.516 0-24.775 8.26-24.775 24.775l-14.451 346.839c-1.376 6.882 0 12.387 4.129 16.516 5.506 5.505 12.388 8.258 20.646 8.258zM470.709 258.065c11.011 11.008 24.775 16.515 41.291 16.515s30.28-5.507 41.291-16.515c11.011-11.014 16.514-24.775 16.514-41.29s-5.503-30.282-16.514-41.29c-11.011-11.014-24.775-16.515-41.291-16.515s-30.28 5.501-41.291 16.515c-11.010 11.008-16.516 24.775-16.516 41.29s5.506 30.276 16.516 41.29z" />
<glyph unicode="&#xe91f;" glyph-name="Icon-nameplus" d="M1002.664 512c14.226 0 21.336-7.111 21.336-21.334v-85.333c0-14.223-7.109-21.334-21.336-21.334h-426.664v-426.664c0-14.226-7.111-21.336-21.334-21.336h-85.333c-14.223 0-21.334 7.109-21.334 21.336v426.664h-426.667c-14.222 0-21.333 7.111-21.333 21.334v85.333c0 14.223 7.111 21.334 21.333 21.334h426.667v426.667c0 14.222 7.111 21.333 21.334 21.333h85.333c14.223 0 21.334-7.111 21.334-21.333v-426.667h426.664z" />
<glyph unicode="&#xe920;" glyph-name="Icon-nameprev-arrow" d="M334.284 116.932c13.95-13.687 37.168-13.687 51.607 0 13.95 13.227 13.95 35.243 0 48.435l-261.675 248.102h863.488c20.13 0.030 36.13 15.198 36.13 34.283s-16 34.748-36.13 34.748h-863.488l261.675 247.637c13.95 13.689 13.95 35.733 0 48.929-14.438 13.689-37.689 13.689-51.607 0l-323.622-306.832c-14.438-13.227-14.438-35.243 0-48.435l323.622-306.867z" />
<glyph unicode="&#xe921;" glyph-name="wood-icon" horiz-adv-x="1203" d="M476.32 763.729h124.679c-2.651-40.25-14.645-81.077-44.791-166.851-11.937-33.978-17.998-51.878-24.23-72.387-15.377-50.575-23.247-92.299-23.247-132.211 0-58.212 12.029-104.387 38.519-169.264 26.287-64.37 29.912-73.329 32.894-90.749h-133.699c-39.206 155.011-52.438 268.82-40.127 340.434 12.861 74.84 36.198 171.88 70.004 291.023v0.006zM437.717 763.729c-32.595-115.692-55.262-210.569-68.008-284.72-13.131-76.399-0.185-191.658 38.436-346.737h-85.135c-20.512 0-37.144 16.631-37.144 37.144v557.17c0 20.512 16.632 37.144 37.144 37.144l114.707-0.002zM722.808 763.729c2.52-45.338 15.029-88.23 46.985-179.165 11.77-33.492 17.702-51.023 23.737-70.875 14.403-47.373 21.64-85.741 21.64-121.397 0-52.175-10.545-91.552-35.7-151.584-0.665-1.585-9.787-23.151-12.373-29.414-4.656-11.263-8.267-20.53-11.426-29.512-6.175-17.562-10.435-33.687-12.743-49.504h-125.152c-4.047 26.133-5.316 29.322-36.132 104.793-24.833 60.811-35.766 102.779-35.766 155.226 0 35.66 7.236 74.029 21.64 121.398 6.034 19.851 11.967 37.382 23.737 70.875 31.956 90.935 44.465 133.823 46.985 179.164l84.569-0.004zM685.166 280.856c40.346 0 65.004 59.177 65.004 130.002s-24.657 130.001-65.004 130.001c-40.346 0-65.004-59.177-65.004-130.001s24.658-130.002 65.004-130.002zM760.045 763.729h120.134c20.514 0 37.146-16.632 37.146-37.145v-557.17c0-20.512-16.631-37.144-37.146-37.144h-99.611c2.079 11.659 5.453 23.821 10.153 37.185 2.902 8.263 6.285 16.945 10.708 27.645 2.519 6.095 11.588 27.538 12.307 29.247 26.891 64.181 38.585 107.841 38.585 165.938 0 39.907-7.871 81.632-23.248 132.211-6.232 20.508-12.292 38.408-24.23 72.386-30.145 85.773-42.139 126.596-44.791 166.851l-0.006-0.004zM685.166 318c-10.941 0-27.86 40.602-27.86 92.86s16.918 92.861 27.86 92.861c10.941 0 27.86-40.603 27.86-92.861s-16.919-92.86-27.86-92.86z" />
<glyph unicode="&#xe922;" glyph-name="brown-Star" horiz-adv-x="1092" d="M546.133 871.118l120.945-290.785 313.928-25.168-239.179-204.883 4.833-20.279 68.239-286.060-268.766 164.161-268.766-164.161 73.073 306.339-239.18 204.883 313.928 25.168 120.945 290.785z" />
<glyph unicode="&#xe923;" d="M512.166-64c282.769 0 512 229.231 512 512s-229.231 512-512 512c-282.769 0-512-229.23-512-512s229.23-512 512-512z" />
<glyph unicode="&#xe924;" glyph-name="Icon-namesmall-close" d="M557.295 447.996l201.344 201.345c12.51 12.499 12.51 32.779 0 45.277-12.51 12.509-32.768 12.509-45.278 0l-201.344-201.344-201.358 201.344c-12.509 12.509-32.768 12.509-45.277 0-12.509-12.499-12.509-32.779 0-45.277l201.357-201.345-201.357-201.348c-12.509-12.497-12.509-32.777 0-45.278 6.255-6.242 14.452-9.37 22.639-9.37s16.384 3.127 22.639 9.382l201.358 201.344 201.344-201.344c6.255-6.255 14.451-9.382 22.639-9.382s16.384 3.127 22.639 9.382c12.51 12.497 12.51 32.777 0 45.278l-201.344 201.335z" />
<glyph unicode="&#xe925;" glyph-name="Icon-nametrash" d="M956.344 832c10.972 0 16.456-5.334 16.456-16v-32c0-10.666-5.484-16-16.456-16h-39.086l-67.886-743.997c-2.744-24.003-13.716-44.667-32.916-62.003-19.2-17.331-41.139-25.999-65.828-25.999h-477.256c-24.686 0-46.629 8.668-65.829 25.999-19.2 17.336-30.171 38.001-32.914 62.003l-67.886 743.997h-39.086c-10.971 0-16.457 5.334-16.457 16v32c0 10.666 5.486 16 16.457 16h213.943l69.943 90c8.229 10.667 19.886 19.333 34.972 26 15.086 8 29.486 12 43.2 12h164.569c13.716 0 28.114-4 43.203-12 15.084-6.667 26.742-15.333 34.97-26l69.944-90h213.944zM402.972 884l-39.086-52h296.231l-39.086 52c-6.861 8.001-15.775 12-26.747 12h-164.569c-10.972 0-19.886-4-26.743-12zM783.544 29.998l67.886 738.002h-678.859l67.886-738.002c0-7.997 3.428-14.664 10.286-19.999 6.857-6.666 14.4-9.999 22.629-9.999h477.256c5.489 0 10.286 1.331 14.403 3.999 5.484 2.668 9.6 6.666 12.339 12.001 4.116 3.999 6.175 8.668 6.175 13.998z" />
<glyph unicode="&#xe926;" glyph-name="Icon-nametruck" d="M998.622 273.778c7.47 0 13.335-2.594 17.601-7.777 5.33-4.147 7.999-9.853 7.999-17.112v-24.889c0-7.259-2.668-13.483-7.999-18.665-4.267-4.147-10.132-6.224-17.601-6.224h-76.8c0-41.483-14.933-76.743-44.8-105.779s-66.133-43.554-108.8-43.554c-42.667 0-78.933 14.518-108.8 43.554s-44.8 64.296-44.8 105.779h-204.799c0-41.483-14.933-76.743-44.8-105.779s-66.133-43.554-108.8-43.554c-42.667 0-78.933 14.518-108.8 43.554s-44.8 64.296-44.8 105.779h-12.8c-24.533 0-45.867 8.294-64 24.889-17.067 17.63-25.6 38.372-25.6 62.219v472.892c0 23.852 8.533 44.074 25.6 60.667 18.133 17.629 39.467 26.444 64 26.444h486.399c24.536 0 45.335-8.815 62.401-26.444 18.13-16.593 27.199-36.815 27.199-60.667v-62.222h57.6c32 0 59.199-10.889 81.601-32.667l134.4-130.666c22.397-21.778 33.599-48.222 33.599-79.333v-180.445h25.6zM201.822 146.222c14.933-14.518 33.067-21.777 54.4-21.777s39.467 7.259 54.4 21.777c14.933 14.518 22.4 32.148 22.4 52.89s-7.467 38.372-22.4 52.89c-14.933 14.518-33.067 21.777-54.4 21.777s-39.467-7.259-54.4-21.777c-14.933-14.518-22.4-32.148-22.4-52.89s7.467-38.372 22.4-52.89zM589.022 273.778v485.333c0 8.296-4.267 12.444-12.8 12.444h-486.399c-8.533 0-12.8-4.148-12.8-12.444v-472.892c0-8.294 4.267-12.442 12.8-12.442h33.6c13.867 22.812 32.534 40.966 56 54.443 23.467 13.483 49.067 20.224 76.8 20.224s53.333-6.741 76.8-20.224c23.467-13.477 42.133-31.63 56-54.443h200zM665.822 622.222v-124.444h201.603l-116.804 113.555c-7.464 7.26-16.532 10.889-27.199 10.889h-57.6zM713.825 146.222c14.933-14.518 33.064-21.777 54.397-21.777s39.47 7.259 54.403 21.777c14.933 14.518 22.397 32.148 22.397 52.89s-7.464 38.372-22.397 52.89c-14.933 14.518-33.070 21.777-54.403 21.777s-39.464-7.259-54.397-21.777c-14.933-14.518-22.403-32.148-22.403-52.89s7.47-38.372 22.403-52.89zM896.222 281.554v141.557h-230.4v-113.556c29.867 25.924 64 38.889 102.4 38.889 54.403 0 97.070-22.295 128-66.89z" />
<glyph unicode="&#xe927;" d="M512.166-64c282.769 0 512 229.231 512 512s-229.231 512-512 512c-282.769 0-512-229.23-512-512s229.23-512 512-512z" />
<glyph unicode="&#xe928;" d="M840.444 651.664c-24.149-10.717-50.086-17.961-77.359-21.217 27.836 16.667 49.156 43.079 59.226 74.513-26.441-15.704-55.377-26.759-85.551-32.686-24.559 26.175-59.575 42.517-98.317 42.517-74.364 0-134.669-60.283-134.669-134.689 0-10.543 1.186-20.827 3.469-30.702-111.943 5.626-211.187 59.247-277.617 140.725-11.599-19.899-18.239-43.036-18.239-67.721 0-46.723 23.782-87.947 59.917-112.094-21.392 0.661-42.314 6.438-61.017 16.841v-1.702c0-65.267 46.42-119.684 108.041-132.062-11.319-3.102-23.199-4.723-35.489-4.723-8.689 0-17.119 0.823-25.355 2.372 17.14-53.491 66.883-92.429 125.806-93.53-46.097-36.134-104.182-57.677-167.268-57.677-10.866 0-21.605 0.649-32.147 1.92 59.616-38.225 130.4-60.544 206.467-60.544 247.734 0 383.222 205.239 383.222 383.221 0 5.843-0.128 11.643-0.41 17.422 26.394 19.093 49.182 42.734 67.29 69.816z" />
<glyph unicode="&#xe929;" glyph-name="Icon-nameup-arrow" d="M181.1 625.55c-13.689-13.95-13.689-37.168 0-51.607 13.227-13.95 35.241-13.95 48.436 0l248.1 261.675v-863.492c0.030-20.126 15.198-36.126 34.283-36.126s34.748 16 34.748 36.126v863.492l247.637-261.674c13.687-13.95 35.733-13.95 48.93 0 13.687 14.438 13.687 37.688 0 51.606l-306.833 323.622c-13.227 14.438-35.243 14.438-48.435 0l-306.866-323.622z" />
<glyph unicode="&#xe92a;" glyph-name="Icon-nameuser" d="M666.287 394.667c62.857 0 116.57-22.221 161.143-66.667 45.713-43.332 68.57-95.556 68.57-156.668v-69.999c0-22.221-8-41.109-24-56.666s-35.43-23.334-58.287-23.334h-603.427c-22.857 0-42.286 7.778-58.286 23.334s-24 34.445-24 56.666v69.999c0 61.111 22.286 113.335 66.857 156.668 45.714 44.446 100 66.667 162.857 66.667 14.857 0 36.571-4.446 65.143-13.333 29.713-8.887 59.43-13.333 89.143-13.333s59.43 4.446 89.143 13.333c29.713 8.887 51.426 13.333 65.143 13.333zM841.143 101.333v69.999c0 46.669-17.143 86.669-51.43 120-34.283 33.335-75.426 50.001-123.426 50.001-6.857 0-26.287-4.446-58.287-13.333-30.857-8.887-62.857-13.333-96-13.333s-65.715 4.446-97.714 13.333c-30.857 8.887-49.714 13.333-56.571 13.333-48 0-89.143-16.666-123.429-50.001-34.286-33.331-51.429-73.331-51.429-120v-69.999c0-7.778 2.286-13.888 6.857-18.334 5.714-5.555 12.571-8.333 20.571-8.333h603.427c8 0 14.285 2.778 18.859 8.333 5.713 4.446 8.572 10.556 8.572 18.334zM666.287 509.666c-42.287-41.109-93.717-61.666-154.287-61.666s-112.571 20.557-156 61.666c-42.286 42.223-63.429 92.778-63.429 151.667s21.143 108.889 63.429 150c43.429 42.223 95.43 63.334 156 63.334s112-21.111 154.287-63.334c43.426-41.111 65.143-91.111 65.143-150s-21.717-109.444-65.143-151.667zM628.57 774.667c-32 31.111-70.857 46.667-116.57 46.667s-84.57-15.555-116.571-46.667c-32-31.111-48-68.889-48-113.333s16-82.222 48-113.333c32.002-31.11 70.858-46.667 116.571-46.667s84.57 15.556 116.57 46.667c32 31.111 48 68.889 48 113.333s-16 82.222-48 113.333z" />
<glyph unicode="&#xe92b;" glyph-name="Icon-namevalidated" d="M148.645 809.291c100.473 100.473 221.591 150.709 363.355 150.709 141.761 0 262.195-50.237 361.29-150.709 100.471-99.097 150.71-219.527 150.71-361.291 0-141.761-50.239-262.884-150.71-363.355-99.095-99.095-219.529-148.645-361.29-148.645-141.764 0-262.882 49.55-363.355 148.645-99.097 100.471-148.645 221.594-148.645 363.355 0 141.764 49.548 262.193 148.645 361.291zM512 2.065c123.87 0 229.16 43.355 315.87 130.065 86.71 88.087 130.065 193.377 130.065 315.87 0 123.871-44.043 229.162-132.13 315.871-86.71 86.709-191.312 130.064-313.805 130.064-123.871 0-229.162-44.043-315.871-132.129-86.709-86.709-130.064-191.312-130.064-313.807 0-123.87 43.355-229.16 130.064-315.87 88.086-86.71 193.376-130.065 315.871-130.065zM805.16 569.807l-373.676-369.546c-11.011-12.39-22.71-12.39-35.097 0l-177.549 179.61c-11.010 11.014-11.010 22.711 0 35.098l18.581 16.517c11.011 11.011 22.709 11.011 35.096 0l142.451-144.514 336.518 336.514c12.385 11.011 24.087 10.322 35.095-2.064l18.58-16.517c11.014-12.387 11.014-24.086 0-35.096z" />
<glyph unicode="&#xe92c;" d="M512 933.053c267.887 0 485.053-217.165 485.053-485.053s-217.165-485.053-485.053-485.053c-267.887 0-485.053 217.165-485.053 485.053s217.165 485.053 485.053 485.053z" />
<glyph unicode="&#xe92d;" d="M512 933.053c267.887 0 485.053-217.165 485.053-485.053s-217.165-485.053-485.053-485.053c-267.887 0-485.053 217.165-485.053 485.053s217.165 485.053 485.053 485.053z" />
<glyph unicode="&#xe92e;" d="M654.314 472.42c3.932 0 5.896-1.964 5.896-5.893v-23.579c0-3.929-1.964-5.893-5.896-5.893h-271.155c-3.932 0-5.896 1.964-5.896 5.893v23.579c0 3.929 1.964 5.893 5.896 5.893h271.155z" />
<glyph unicode="&#xe92f;" glyph-name="next-btn" d="M512 805.209c-197.282 0-357.209-159.927-357.209-357.209 0-197.277 159.927-357.209 357.209-357.209s357.209 159.932 357.209 357.209c0 197.282-159.927 357.209-357.209 357.209zM620.851 423.805c-1.741-1.741-3.651-3.213-5.639-4.491l-134.061-134.061c-6.511-6.515-15.046-9.771-23.581-9.771s-17.065 3.255-23.581 9.771c-13.026 13.026-13.026 34.149 0 47.171l115.519 115.536-114.938 114.938c-13.026 13.033-13.026 34.149 0 47.171 13.026 13.026 34.144 13.019 47.171 0.007l133.468-133.461c1.988-1.279 3.898-2.748 5.632-4.491 6.658-6.658 9.871-15.429 9.721-24.162 0.157-8.728-3.048-17.494-9.711-24.157z" />
<glyph unicode="&#xe930;" d="M512 933.053c267.887 0 485.053-217.165 485.053-485.053s-217.165-485.053-485.053-485.053c-267.887 0-485.053 217.165-485.053 485.053s217.165 485.053 485.053 485.053z" />
<glyph unicode="&#xe931;" d="M512 933.053c267.887 0 485.053-217.165 485.053-485.053s-217.165-485.053-485.053-485.053c-267.887 0-485.053 217.165-485.053 485.053s217.165 485.053 485.053 485.053z" />
<glyph unicode="&#xe932;" d="M654.314 472.42c3.932 0 5.896-1.964 5.896-5.893v-23.579c0-3.929-1.964-5.893-5.896-5.893h-117.895v-117.895c0-3.932-1.964-5.896-5.893-5.896h-23.579c-3.929 0-5.893 1.964-5.893 5.896v117.895h-117.895c-3.932 0-5.896 1.964-5.896 5.893v23.579c0 3.929 1.964 5.893 5.896 5.893h117.895v117.895c0 3.932 1.964 5.896 5.893 5.896h23.579c3.929 0 5.893-1.964 5.893-5.896v-117.895h117.895z" />
<glyph unicode="&#xe933;" glyph-name="prev-btn" d="M512 805.209c197.282 0 357.209-159.927 357.209-357.209 0-197.277-159.927-357.209-357.209-357.209s-357.209 159.932-357.209 357.209c0 197.282 159.927 357.209 357.209 357.209zM403.149 423.805c1.741-1.741 3.651-3.213 5.639-4.491l134.061-134.061c6.511-6.515 15.046-9.771 23.581-9.771s17.065 3.255 23.581 9.771c13.026 13.026 13.026 34.149 0 47.171l-115.519 115.536 114.938 114.938c13.026 13.033 13.026 34.149 0 47.171-13.026 13.026-34.144 13.019-47.171 0.007l-133.468-133.461c-1.988-1.279-3.898-2.748-5.632-4.491-6.658-6.658-9.871-15.429-9.721-24.162-0.157-8.728 3.048-17.494 9.711-24.157z" />
<glyph unicode="&#xe934;" glyph-name="truck-Icon" d="M975.428 298.667c7.109 0 12.698-2.224 16.764-6.666 5.076-3.555 7.617-8.446 7.617-14.668v-21.333c0-6.222-2.54-11.557-7.617-15.999-4.067-3.555-9.655-5.335-16.764-5.335h-73.143c0-35.557-14.224-65.78-42.667-90.668s-62.986-37.332-103.619-37.332c-40.633 0-75.176 12.444-103.619 37.332s-42.667 55.111-42.667 90.668h-195.047c0-35.557-14.222-65.78-42.667-90.668s-62.984-37.332-103.619-37.332c-40.635 0-75.175 12.444-103.619 37.332s-42.667 55.111-42.667 90.668h-12.19c-23.365 0-43.683 7.109-60.953 21.333-16.254 15.111-24.381 32.89-24.381 53.331v405.336c0 20.444 8.127 37.778 24.381 52 17.27 15.111 37.587 22.666 60.953 22.666h463.238c23.367 0 43.174-7.556 59.431-22.666 17.267-14.222 25.902-31.556 25.902-52v-53.333h54.857c30.476 0 56.383-9.334 77.717-28l128-112c21.333-18.667 31.998-41.334 31.998-67.999v-154.668h24.381zM216.572 189.333c14.222-12.444 31.492-18.666 51.81-18.666s37.587 6.222 51.81 18.666c14.222 12.444 21.333 27.555 21.333 45.334s-7.111 32.89-21.333 45.334c-14.222 12.444-31.492 18.666-51.81 18.666s-37.588-6.222-51.81-18.666c-14.222-12.444-21.333-27.555-21.333-45.334s7.111-32.89 21.333-45.334zM585.333 298.667v416c0 7.111-4.062 10.667-12.19 10.667h-463.238c-8.127 0-12.19-3.556-12.19-10.667v-405.336c0-7.109 4.063-10.664 12.19-10.664h32c13.206 19.554 30.984 35.113 53.333 46.665 22.349 11.557 46.73 17.335 73.143 17.335s50.793-5.778 73.143-17.335c22.349-11.552 40.127-27.112 53.333-46.665h190.476zM658.476 597.333v-106.667h192l-111.236 97.333c-7.114 6.223-15.75 9.334-25.907 9.334h-54.857zM704.19 189.333c14.224-12.444 31.49-18.666 51.81-18.666s37.586 6.222 51.81 18.666c14.224 12.444 21.333 27.555 21.333 45.334s-7.109 32.89-21.333 45.334c-14.224 12.444-31.49 18.666-51.81 18.666s-37.586-6.222-51.81-18.666c-14.224-12.444-21.333-27.555-21.333-45.334s7.109-32.89 21.333-45.334zM877.904 305.332v121.334h-219.429v-97.334c28.443 22.221 60.952 33.334 97.524 33.334 51.81 0 92.443-19.11 121.905-57.334z" />
<glyph unicode="&#xe935;" d="M418.173 213.461c-16.552 0-13.747 6.174-19.357 22.165l-48.816 160.474 375.372 222.473z" />
<glyph unicode="&#xe936;" d="M418.208 213.474c12.904 0 18.515 5.892 25.529 12.902l68.173 66.492-85.286 51.341z" />
<glyph unicode="&#xe937;" d="M426.884 343.919l206.204-152.337c23.565-12.907 40.678-6.174 46.289 21.884l83.883 395.852c8.7 34.507-13.184 50.218-35.627 39.838l-493.205-190.211c-33.666-13.466-33.385-32.265-6.172-40.678l126.527-39.561 292.893 184.883c13.747 8.416 26.65 3.927 15.991-5.331z" />
</font>
</defs>
</svg>
