<svg width="82" height="81" viewBox="0 0 82 81" fill="none" xmlns="http://www.w3.org/2000/svg">
<path d="M7.73609 48.5C5.29941 48.5 3.40089 47.8633 2.04053 46.5899C0.680178 45.3165 0 43.4738 0 41.0618V32.5H4.93316V40.7697C4.93316 41.6835 5.15739 42.4326 5.60586 43.0169C6.05433 43.6011 6.7644 43.8933 7.73609 43.8933H16.7055C17.6771 43.8933 18.3872 43.6011 18.8357 43.0169C19.2842 42.4326 19.5084 41.6835 19.5084 40.7697V32.5H24.4415V41.0618C24.4415 43.4738 23.7614 45.3165 22.401 46.5899C21.0407 47.8633 19.1421 48.5 16.7055 48.5H7.73609Z" fill="#32324D"/>
<path d="M48.078 32.5H52.9215V48.2303H48.078L33.0319 38.3876V48.2303H28.1884V32.5H33.0319L48.078 42.3652V32.5Z" fill="#32324D"/>
<path d="M76.9996 48.2303L76.3493 45.736H61.3929L60.7426 48.2303H55.7646L59.9129 32.5H77.8517L82 48.2303H76.9996ZM62.514 41.3539H75.2057L74.0397 36.8371H63.68L62.514 41.3539Z" fill="#32324D"/>
</svg>
