<svg width="72" height="61" viewBox="0 0 72 61" fill="none" xmlns="http://www.w3.org/2000/svg">
<path d="M6.79266 37.5C4.65314 37.5 2.98615 36.9429 1.79169 35.8287C0.597229 34.7144 0 33.1021 0 30.9916V23.5H4.33155V30.736C4.33155 31.5356 4.52844 32.191 4.92222 32.7022C5.316 33.2135 5.93948 33.4691 6.79266 33.4691H14.6682C15.5214 33.4691 16.1449 33.2135 16.5387 32.7022C16.9324 32.191 17.1293 31.5356 17.1293 30.736V23.5H21.4609V30.9916C21.4609 33.1021 20.8636 34.7144 19.6692 35.8287C18.4747 36.9429 16.8077 37.5 14.6682 37.5H6.79266Z" fill="#32324D"/>
<path d="M42.2148 23.5H46.4676V37.264H42.2148L29.0036 28.6517V37.264H24.7508V23.5H29.0036L42.2148 32.132V23.5Z" fill="#32324D"/>
<path d="M67.6094 37.264L67.0384 35.0815H53.9059L53.3349 37.264H48.964L52.6065 23.5H68.3576L72 37.264H67.6094ZM54.8904 31.2472H66.0343L65.0105 27.2949H55.9142L54.8904 31.2472Z" fill="#32324D"/>
</svg>
